<svg width="72" height="45" viewBox="0 0 72 45" fill="none" xmlns="http://www.w3.org/2000/svg">
<path d="M55.9036 45C54.1193 45 52.5382 44.9567 51.2917 44.8291C47.1369 44.4052 45.0964 40.7315 44.8794 40.3145C44.8494 40.2575 44.8217 40.1983 44.7963 40.139C44.7478 40.0273 43.6214 37.3792 42.091 32.443C41.1885 29.5374 41.8833 27.6253 42.6242 26.5337C44.1454 24.2935 46.7929 23.9881 47.0907 23.9608C47.1692 23.954 47.2453 23.9494 47.3238 23.9494H54.7726C55.4189 23.9403 57 23.6919 57.6602 22.9763C57.8472 22.7735 58.0549 22.4407 57.9926 21.6727C57.7941 19.2206 55.4789 18.8537 54.6964 18.799H40.6761C39.7597 18.7967 37.3175 19.0884 36.0849 20.572C33.8182 23.2976 27.2351 31.6659 27.1682 31.7502C26.6419 32.418 25.8155 32.7849 24.9568 32.7051C24.1028 32.6322 23.3457 32.1376 22.944 31.3902C22.884 31.2808 16.998 20.3532 14.1427 15.588C12.4392 12.7461 11.1858 12.1445 10.9134 12.0419H2.52523C1.13104 12.0419 0 10.9253 0 9.54877C0 8.17229 1.13104 7.05561 2.52523 7.05561H11.0958C12.1368 7.05561 15.2091 7.5752 18.4891 13.0492C20.4119 16.2557 23.5696 21.9964 25.5685 25.6632C27.7175 22.9467 30.7459 19.134 32.1817 17.4066C35.1916 13.7899 40.1844 13.8081 40.7361 13.8127H54.7703C54.8026 13.8127 54.8349 13.8127 54.8649 13.8127C57.4871 13.9107 62.5652 15.5948 63.0269 21.2739C63.1885 23.2703 62.6137 25.0296 61.3649 26.3651C59.029 28.8628 55.2019 28.9357 54.7726 28.9357H47.5016C47.3146 28.9768 46.943 29.1158 46.8137 29.3163C46.6798 29.5237 46.636 30.0706 46.9199 30.9822C48.1871 35.0684 49.1681 37.516 49.3989 38.0743C49.579 38.3637 50.4977 39.7334 51.8134 39.8655C54.0709 40.0957 58.1172 40.0023 62.0251 39.9111L64.5896 39.8541C65.2751 39.8405 66.8817 39.7037 66.9486 38.742V6.07338C66.8724 5.36463 66.5701 4.98861 66.0507 4.98861H29.8896C28.9571 4.98861 28.6616 5.16408 28.6108 5.99362V11.2944C28.6108 12.6709 27.4798 13.7876 26.0856 13.7876C24.6914 13.7876 23.5604 12.6709 23.5604 11.2944V5.97311C23.5511 5.65861 23.5788 3.65998 25.2246 1.98724C26.5218 0.66773 28.3708 0 30.7159 0H66.0507C70.164 0 71.8583 3.48678 71.9944 5.83181C71.9968 5.87967 71.9991 5.92525 71.9991 5.97311V38.7716C72.0083 39.0747 71.9806 41.0278 70.3625 42.7074C69.0422 44.0747 67.1356 44.7949 64.6934 44.8428L62.1474 44.8997C59.95 44.9521 57.8148 45 55.9082 45H55.9036ZM66.9463 38.7443C66.9417 38.8081 66.9463 38.8423 66.9463 38.8423V38.7443Z" fill="#0A3D71"/>
</svg>
