<svg width="282" height="46" viewBox="0 0 282 46" fill="none" xmlns="http://www.w3.org/2000/svg">
<g clip-path="url(#clip0_2743_2931)">
<path d="M4.21123 46.0008H4.0852L3.72111 45.9728L3.6791 45.8888H3.6511L3.59508 45.8047H3.38503L3.21699 45.7627V45.6366L3.38503 44.1659L3.42704 42.6251L3.31502 41.1123L3.13297 39.5154L2.60084 38.1147L2.0127 36.714L1.21451 35.4533C0.934443 35.0471 0.626369 34.6689 0.304291 34.2487H0.290288C-0.00378325 33.3662 -0.0457934 32.1196 0.0382269 30.9009C0.0382269 30.9009 0.080237 30.4247 0.0382269 30.3547L0.080237 29.3181L0.500338 28.2255L0.92044 27.0489L1.55059 25.9283L2.09672 24.8078L2.96493 23.5891L3.72111 22.4966L4.54731 21.2779L5.66758 19.499L7.17995 17.7621L8.84635 16.1232L10.8488 14.4844L12.7393 12.9856L14.8118 11.4448L16.8703 9.98803L18.9568 8.47524L20.4972 7.48073L22.1636 6.4722L23.802 5.46367L25.4684 4.42713L26.9387 3.4046L28.5631 2.11593L30.0335 0.855269L31.5318 -0.0131836H31.7419L31.8259 0.0288383H31.9379L32.12 -0.0131836L34.6826 0.365014L34.7946 0.43505H35.0047L35.1727 0.491079H35.3968L35.5928 0.519094H35.8028L36.0129 0.561116L36.265 0.519094L36.1389 0.687182V0.841262L35.9709 1.00935L35.9429 1.12141L35.6908 1.3035L35.5228 1.35953L35.2847 1.56964L35.2427 1.62567L35.0747 1.79376L31.8539 3.93688L28.5631 5.93992L25.2443 7.90094L22.1216 9.81995L18.9288 11.921L15.9601 14.0922L13.1734 16.5014L10.7928 19.1488L10.6528 19.2329L10.4847 19.3449L10.4147 19.457H10.3587L10.2467 19.527L9.28045 20.8577L8.58029 22.2444L7.8241 23.5751L7.376 24.9198L6.89988 26.3766L6.78785 27.6933L6.74584 29.08L7.08192 30.2426L8.30022 31.8254L8.6223 32.2456L8.93037 32.6519L9.0564 33.1281L9.22444 33.6324L9.26645 34.1226L9.39248 34.6689L9.50451 35.2572L9.77057 35.7615L9.81258 36.3358L9.96662 36.8821L10.0506 37.4844L10.2327 38.0307L10.1767 38.605L10.0927 39.1372L9.77057 39.7396L9.39248 40.2718L9.22444 40.7341L9.0564 41.1543L8.76233 41.6025L8.59429 42.0648L8.25821 42.569L7.92213 42.9892L7.71208 43.4235L7.46002 43.8017L7.20796 44.0818L7.03992 44.3339L6.78785 44.5861L6.61981 44.7542L6.28373 44.9503L6.08769 45.2024L5.77961 45.4265L5.61157 45.6226L5.35951 45.6646H5.10745L4.93941 45.7487L4.8974 45.7067L4.64534 45.8327L4.4773 45.8747L4.22524 45.9028L4.21123 46.0008Z" fill="#0A3D71"/>
<path d="M42.3408 38.351C41.7947 38.6451 41.3326 38.6731 40.7164 38.8132L38.2378 38.8833H22.176C21.0137 38.8132 19.6834 38.8132 18.8292 38.7292C18.6191 38.6031 18.7451 38.477 18.7031 38.351C18.7031 38.2529 18.7031 38.1409 18.7591 38.0568V37.9868C18.9132 37.6786 19.1092 37.3985 19.2493 37.1464L19.8794 36.3479C21.2097 35.1293 22.442 33.8686 23.7723 32.622L26.0829 30.5769C27.3712 28.9801 29.7518 26.907 30.424 24.946C31.8663 22.1725 33.3086 20.1275 35.2691 17.7462L36.5294 16.3595L37.7337 15.0288L39.036 13.6981L39.6662 12.8016C40.6184 11.597 41.4726 10.4204 42.3828 9.22978L45.2815 7.1567C45.4496 7.08666 45.4776 7.00262 45.6456 6.91858C45.9677 6.33027 46.8219 5.6159 46.7379 5.2377C46.6959 4.99958 45.3656 4.50932 45.2815 4.4673C44.8334 4.2852 45.0715 4.32722 44.7354 4.00506C44.5674 3.87899 44.3853 3.75292 44.2593 3.62686C43.9372 3.50079 43.6011 3.37473 43.265 3.24866C42.5929 3.01054 42.6629 3.02454 42.2988 2.40822C42.3828 2.19811 42.2288 2.12808 42.2988 1.95999C42.0187 1.81992 42.3548 1.4137 42.2288 1.14757C41.8087 0.531244 42.8449 0.559258 43.265 0.265105L45.1835 0.195068H52.9274C53.2074 0.195068 53.2635 0.307127 53.3755 0.405178C53.5015 0.615288 53.5995 0.699331 53.5995 1.07753C53.6275 1.42771 53.5575 1.70786 53.4595 2.12808L48.6423 18.5446L43.8812 34.9892C43.7692 35.4795 43.5031 35.9977 43.2931 36.53C43.083 37.1183 42.887 37.8327 42.3408 38.379V38.351Z" fill="#0A3D71"/>
<path d="M68.4249 23.8134L68.1169 24.9479H65.8203L72.2059 1.75185C72.3739 1.24758 72.71 0.981445 73.1861 0.981445H94.7793C95.2834 0.981445 95.4795 1.26159 95.3394 1.75185L88.9539 24.962H86.6713L86.9794 23.8274H68.4249V23.8134ZM90.0181 3.05453C90.0602 3.61482 90.1022 4.21713 90.1022 4.86147H91.3485L90.7743 6.92054H85.7891C85.383 9.83406 85.159 11.9912 85.103 13.3499C86.2232 11.7811 87.2595 10.0442 88.2397 8.16719L90.0882 8.71348C88.4778 11.711 86.8674 14.1063 85.285 15.9132C85.215 15.9833 85.145 16.0253 85.103 16.0953C85.159 16.8097 85.215 17.454 85.285 18.0283C85.341 18.6166 85.425 18.9388 85.4951 18.9248C85.6491 18.8828 85.8031 18.7007 85.9432 18.3785C86.2232 17.6081 86.4893 16.6696 86.7274 15.5631L88.5898 16.0813C87.9176 18.2384 87.2595 19.7933 86.5733 20.7458C86.2232 21.138 85.9152 21.3621 85.6771 21.4321C85.411 21.5442 85.159 21.5862 84.8789 21.5722C84.3748 21.4741 83.9687 21.166 83.6606 20.5637C83.4506 19.9193 83.2825 19.1209 83.1985 18.1684C81.8542 19.5131 80.5799 20.6477 79.3896 21.6002L77.9892 20.2555C78.6334 19.7652 79.2636 19.261 79.8937 18.7707C77.065 19.4291 74.0683 19.8353 70.8895 19.9754L71.0436 17.8462C75.1326 17.5381 78.3253 17.0898 80.5799 16.5015L80.4678 18.3085C81.4901 17.398 82.3443 16.5716 83.0865 15.8152C83.0165 13.504 83.2265 10.5484 83.7306 6.92054H74.2924L74.8525 4.86147H84.0807C84.1927 4.24515 84.3048 3.64283 84.4448 3.05453H74.4324C74.2083 3.05453 74.0963 3.16659 74.0403 3.37669L68.9711 21.7683H87.5536L92.6228 3.37669C92.6508 3.16659 92.5808 3.05453 92.3707 3.05453H90.0041H90.0181ZM80.5519 15.465C80.4958 15.6611 80.3698 15.7451 80.2158 15.7451H72.1778C72.0098 15.7171 71.9258 15.6331 71.9958 15.465L73.8022 8.90958C73.8583 8.74149 73.9563 8.65745 74.1243 8.65745H82.1482C82.3303 8.65745 82.4003 8.74149 82.3583 8.90958L80.5379 15.465H80.5519ZM79.7537 10.5064H75.5247C75.4406 10.5064 75.4126 10.5204 75.4126 10.5765L74.5304 13.7841C74.5304 13.7841 74.5304 13.8682 74.5864 13.8962H78.8294C78.9135 13.8682 78.9415 13.8542 78.9695 13.7841L79.8377 10.5765C79.8377 10.5765 79.8377 10.5064 79.7537 10.5064ZM87.9176 4.86147C87.8896 4.1471 87.8616 3.54478 87.7636 3.05453H86.4893C86.3633 3.64283 86.2652 4.24515 86.1532 4.86147H87.9176Z" fill="#717070"/>
<path d="M111.669 21.8331C114.638 16.7765 117.075 11.93 119.035 7.36358L121.178 7.95188C119.077 12.5743 116.711 17.2107 114.092 21.8331H121.346L120.73 24.1163H96.2656L96.8958 21.8331H111.669ZM113.084 3.48355L113.966 0.275879H116.332L115.436 3.48355H125.785L125.155 5.76674H101.979L102.581 3.48355H113.084ZM104.08 7.99391L106.516 7.48964C106.558 12.6023 106.362 16.8045 105.97 20.0402L103.533 20.3764C104.108 16.3283 104.29 12.1961 104.08 7.99391Z" fill="#717070"/>
<path d="M131.5 23.5854L131.177 24.762H128.797L131.892 13.5141C132.046 12.9818 132.382 12.7017 132.928 12.7017H150.768C151.314 12.7017 151.552 12.9818 151.384 13.5141L148.262 24.762H145.867L146.203 23.5854H131.5ZM151.636 8.79363L130.617 10.4465C130.631 9.73212 130.645 8.93371 130.645 8.07926L133.25 7.89716C135.771 5.58596 138.235 2.99461 140.63 0.151123L142.226 1.34174C140.84 3.09266 138.907 5.20776 136.387 7.68705L150.32 6.69254C150.138 6.25831 149.34 5.12372 147.897 3.28876L150.124 1.71994C152.365 4.85758 154.031 7.49095 155.123 9.63407L152.883 11.0908C152.519 10.3484 152.098 9.57804 151.622 8.79363H151.636ZM132.116 21.2882H146.833L148.486 15.321C148.542 15.0969 148.458 14.9709 148.206 14.9709H134.202C133.936 14.9709 133.796 15.0969 133.754 15.321L132.088 21.2882H132.116Z" fill="#717070"/>
<path d="M163.356 14.371L165.373 14.483C163.958 18.4751 162.208 21.7528 160.093 24.2601L158.133 23.6018C160.555 20.6463 162.306 17.5927 163.356 14.371ZM162.194 8.83809L163.944 7.17122C164.742 7.78755 165.555 8.656 166.395 9.77658L164.602 11.3454C163.706 10.1968 162.908 9.35637 162.194 8.82409V8.83809ZM164.042 2.42275L165.807 0.783891C166.647 1.44223 167.529 2.36672 168.411 3.58535L166.591 5.16818C165.625 3.89351 164.77 2.99705 164.042 2.40874V2.42275ZM166.171 21.4167L165.793 22.3551L164.154 21.7668L165.975 17.4946C166.213 17.1164 166.451 16.9203 166.787 16.9343H181.28L181.518 16.0659C181.56 15.9258 181.49 15.8558 181.336 15.8558H166.241L166.745 14.0908H183.451C183.787 14.1189 183.885 14.2589 183.815 14.5251L182.499 19.3996H180.622L180.818 18.6852H167.711C167.459 18.6852 167.277 18.8673 167.165 19.1755L166.941 19.6517H182.835C183.241 19.6517 183.395 19.8478 183.269 20.24C182.681 21.8929 182.121 23.0555 181.588 23.6858C181.378 23.8399 181.196 23.98 181.056 24.1481C179.306 25.3247 174.769 25.4788 167.389 24.5963L167.795 22.6633C170.526 23.0975 173.579 23.2936 176.925 23.2936C178.69 23.2516 179.852 23.0135 180.454 22.5372C180.622 22.2571 180.762 21.8929 180.888 21.4307C180.916 21.4167 180.86 21.4027 180.692 21.4027H166.199L166.171 21.4167ZM166.983 10.1968L168.467 10.561C168.159 11.2614 167.655 12.3539 166.913 13.8247L165.471 13.3204C166.003 12.3819 166.521 11.3454 166.983 10.1828V10.1968ZM169.406 9.18828L167.011 9.48243C167.109 8.97817 167.109 8.41787 167.039 7.78755L168.397 7.59144C168.915 7.18523 169.49 6.69498 170.092 6.1767C169.434 5.36428 168.747 4.74796 168.005 4.29973L169.265 2.77293C169.35 2.77293 169.504 2.88499 169.77 3.0951C170.554 2.15661 171.31 1.14808 172.094 0.0415039L173.41 0.853928C172.794 1.69437 171.94 2.75892 170.806 4.0616C171.016 4.2577 171.212 4.49583 171.422 4.70594C172.122 3.87951 172.71 3.08109 173.2 2.29668L174.713 2.87098C174.097 3.93554 172.822 5.4063 170.848 7.22725L172.5 6.94711C172.5 6.62494 172.472 6.31678 172.444 6.06465L174.041 5.63042C174.181 6.58292 174.181 7.73152 174.041 9.11824L172.416 9.46842C172.444 9.20228 172.444 8.95015 172.472 8.71203L171.254 8.89412L169.994 13.4605H168.229L169.42 9.16026L169.406 9.18828ZM171.422 10.519L173.116 10.2528C173.046 11.4995 172.962 12.452 172.85 13.1243L171.184 13.2504C171.352 12.1998 171.436 11.3034 171.436 10.519H171.422ZM178.298 13.2224C178.242 13.3625 178.158 13.4325 178.046 13.4325H173.523C173.396 13.4045 173.354 13.3344 173.382 13.2224L174.671 8.61398C174.713 8.50192 174.783 8.43188 174.909 8.43188H179.432C179.572 8.43188 179.614 8.50192 179.586 8.61398L178.312 13.2224H178.298ZM175.189 6.44284H180.174L179.81 7.77354H174.839L175.203 6.44284H175.189ZM177.738 9.77658H175.833C175.763 9.77658 175.735 9.8046 175.749 9.81861L175.133 12.0318C175.133 12.0318 175.133 12.0878 175.161 12.1018H177.065L177.177 12.0458L177.78 9.81861C177.78 9.81861 177.766 9.77658 177.724 9.77658H177.738ZM182.569 9.00618L180.174 9.30033C180.272 8.78206 180.272 8.19376 180.216 7.54942L181.715 7.36733C182.135 7.03115 182.597 6.61093 183.101 6.13468C182.499 5.28024 181.813 4.59388 181.07 4.0616L181.182 3.89351H175.147L175.511 2.56282H181.757L181.462 3.58535L182.387 2.56282C182.513 2.56282 182.639 2.70289 182.863 2.913C183.549 2.07256 184.249 1.16209 184.963 0.139555L186.28 0.965986C185.747 1.7504 184.921 2.73091 183.857 3.94954C184.039 4.17366 184.249 4.45381 184.473 4.71995C185.201 3.85149 185.831 3.01105 186.336 2.22664L187.848 2.78694C187.316 3.6834 186.084 5.09814 184.109 7.03115L185.621 6.82104C185.593 6.31678 185.551 5.9666 185.551 5.81252L187.246 5.3923C187.358 6.65295 187.386 7.87159 187.344 9.0342L185.635 9.34236C185.663 9.09023 185.663 8.8521 185.635 8.61398L184.389 8.78206L183.059 13.5726H181.308L182.569 8.97817V9.00618ZM175.637 4.55186H180.776L180.426 5.91057H175.273L175.637 4.55186ZM176.519 0.573782H181.981L181.616 1.89047H176.155L176.533 0.573782H176.519ZM180.118 9.90265L181.658 10.1968C181.182 11.4435 180.678 12.564 180.216 13.5586L178.718 13.1804C179.096 12.452 179.572 11.3594 180.104 9.90265H180.118ZM184.445 10.2949L186.154 9.93066C186.168 11.4154 186.154 12.494 186.07 13.1804L184.375 13.4185C184.529 12.1158 184.557 11.0933 184.445 10.2949Z" fill="#717070"/>
<path d="M202.423 18.8369H192.551L193.153 16.6657H203.641C203.711 16.4136 203.781 16.1755 203.865 15.9514L204.313 14.3265H193.279L193.881 12.1554H204.832L205.406 10.0403H196.331L196.948 7.85514H206.022L206.582 5.83809H196.373L196.962 3.65295H203.151C202.829 2.71446 202.479 2.0281 202.143 1.53785L204.355 0.151123C204.86 0.851488 205.294 1.80399 205.672 2.96659L204.481 3.65295H211.119C212.379 2.07012 213.276 0.907518 213.738 0.179138L215.46 1.24369C214.83 2.05612 214.214 2.85453 213.64 3.66696H219.591L218.989 5.8521H208.836L208.276 7.86915H217.182L216.58 10.0543H207.674L207.072 12.1694H217.981L217.407 14.3405H206.582L206.148 15.9654C206.064 16.2175 205.994 16.4556 205.896 16.6797H216.244L215.642 18.8509H206.26C207.772 21.4562 210.825 22.7869 215.39 22.829L214.13 25.1682C214.046 25.1402 213.948 25.1402 213.85 25.1682C209.005 24.818 205.742 23.0671 204.019 19.9294C203.655 20.3076 203.305 20.6578 202.969 20.994C200.518 23.0251 196.485 24.3978 190.828 25.0281L190.954 22.5768C196.626 22.2827 200.448 21.036 202.409 18.8369H202.423Z" fill="#717070"/>
<path d="M225.85 13.3035C225.164 13.8638 224.478 14.382 223.75 14.8723C223.526 14.1579 223.218 13.5976 222.896 13.2474C225.654 11.4125 228.063 8.98922 230.149 6.00566L231.802 7.07022C230.85 8.26084 229.799 9.46547 228.651 10.6841L224.674 25.0696H222.602L225.85 13.3035ZM230.752 0.248656L232.432 1.24318C230.331 4.12868 228.063 6.4679 225.626 8.24683C225.332 7.53246 225.01 7.02819 224.66 6.69202C227.041 5.03916 229.057 2.89604 230.738 0.248656H230.752ZM231.438 9.42344H233.496L233.034 11.1183C231.522 16.0209 229.939 19.7048 228.343 22.1281L226.312 21.7919C228.301 18.7803 229.841 15.2365 230.976 11.1323L231.452 9.43745L231.438 9.42344ZM235.443 6.93014H232.068L232.642 4.87107H236.017L237.305 0.192627H239.462L238.187 4.87107H241.996L241.422 6.93014H237.613L232.628 24.9716H230.457L235.429 6.93014H235.443ZM238.075 9.74561H240.12L237.949 17.6317C237.851 18.0099 237.977 18.192 238.341 18.192H239.812L239.238 20.2791H236.129C235.485 20.2791 235.261 19.9289 235.443 19.2426L238.075 9.75962V9.74561ZM245.035 9.36741H241.772L242.346 7.28032H249.502L248.956 9.36741H247.191L243.621 22.3102C243.313 23.3047 242.752 24.0471 241.87 24.5093C240.848 25.0836 239.21 25.0416 236.969 24.3412L237.641 22.0861C239.504 22.6463 240.68 22.7864 241.17 22.4502C241.366 22.3242 241.492 22.0861 241.59 21.7499L245.021 9.35341L245.035 9.36741ZM240.12 1.11711L242.234 0.248656C242.612 1.60737 242.85 2.64391 242.92 3.31626L240.806 4.04464C240.694 3.31626 240.47 2.33575 240.12 1.1031V1.11711ZM244.685 1.50931H250.594L250.006 3.5964H244.111L244.685 1.50931Z" fill="#717070"/>
<path d="M260.168 23.5072C256.513 24.2916 253.629 24.7678 251.5 24.9779L251.57 22.7368C252.004 22.6947 252.452 22.6387 252.956 22.5687L257.115 7.41277C257.241 7.00656 257.521 6.82447 257.872 6.82447H260.56L261.148 4.66734H263.207L262.633 6.82447H265.153C265.573 6.83847 265.727 7.04858 265.601 7.41277L262.871 17.358C262.759 17.7922 262.465 18.0163 262.031 18.0163H256.275L255.113 22.2325C255.491 22.1765 257.087 21.8683 259.916 21.336C259.734 20.3555 259.636 19.7112 259.58 19.417L261.736 18.6887C262.129 21.6862 262.353 23.5352 262.367 24.2355L260.224 24.7958C260.224 24.3616 260.196 23.9134 260.154 23.4792L260.168 23.5072ZM263.025 2.63628C261.652 3.81289 259.916 5.00352 257.788 6.18013L256.303 4.73738C259.384 3.29462 261.526 1.87989 262.731 0.507169L264.761 0.647242C264.663 0.801323 264.579 0.913381 264.481 1.05345C265.321 1.9079 266.26 2.6783 267.282 3.36466L265.223 5.07355C264.397 4.31716 263.697 3.50473 263.025 2.65029V2.63628ZM261.891 13.4079H257.535L256.835 15.9432H260.84C261.078 15.9432 261.218 15.8452 261.288 15.6211L261.891 13.4079ZM258.11 11.3488H262.465L262.997 9.41582C263.067 9.06563 262.941 8.91155 262.591 8.91155H259.3C258.95 8.91155 258.712 9.07964 258.642 9.41582L258.096 11.3488H258.11ZM275.264 23.8153C275.11 24.3476 274.774 24.6137 274.255 24.6137H263.949C263.487 24.6137 263.319 24.3616 263.431 23.8714L267.828 7.97306C267.94 7.56685 268.206 7.37075 268.598 7.37075H278.344C278.751 7.37075 278.905 7.58086 278.821 7.97306L277.14 14.0522C277.028 14.4725 276.748 14.6826 276.342 14.6826H268.164L267.632 16.6016H276.524C277.014 16.6016 277.21 16.8257 277.07 17.3019L275.278 23.8293L275.264 23.8153ZM274.101 18.6466H267.058L266.106 22.1064C266.049 22.2745 266.106 22.3586 266.274 22.3586H273.079C273.247 22.3586 273.373 22.2745 273.401 22.1064L274.269 18.8708C274.325 18.7167 274.255 18.6466 274.101 18.6466ZM273.275 2.104L273.751 0.381104H276.034L275.558 2.104H280.347L281.985 3.04249C281.495 4.28914 280.711 5.75991 279.647 7.44079L277.896 6.79645C278.667 5.43774 279.087 4.65333 279.115 4.48525C279.171 4.27514 279.129 4.17708 278.975 4.17708H269.536C269.396 4.17708 269.326 4.24712 269.284 4.37319L268.5 7.25869H266.428L267.744 2.49621C267.828 2.24408 267.982 2.104 268.234 2.104H273.303H273.275ZM269.522 9.70997L268.724 12.5955H275.068C275.264 12.5955 275.404 12.4974 275.446 12.2733L276.16 9.70997C276.216 9.51387 276.132 9.42982 275.95 9.42982H269.9C269.69 9.44383 269.578 9.54188 269.522 9.70997Z" fill="#717070"/>
<path d="M64.9361 30.4098H66.3505L68.395 37.1473L70.7475 30.4098H71.8958L68.9831 38.7441H67.6388L65.5243 32.0066L63.1717 38.7301H62.0234L64.9361 30.3958V30.4098Z" fill="#717070"/>
<path d="M75.758 35.0873C76.0101 35.0593 76.2202 34.9613 76.3602 34.7932C76.4442 34.6951 76.5142 34.5691 76.5702 34.401C76.6963 34.0508 76.6543 33.7987 76.4442 33.6446C76.2342 33.4905 75.8841 33.4064 75.408 33.4064C74.8478 33.4064 74.3997 33.5465 74.0636 33.8407C73.8816 33.9948 73.7135 34.2329 73.5595 34.555H72.5513C72.8313 33.7987 73.2794 33.2804 73.8676 32.9862C74.4697 32.6921 75.0859 32.552 75.744 32.552C76.5002 32.552 77.0604 32.6921 77.4384 32.9582C77.8165 33.2384 77.9006 33.6586 77.6905 34.2329L76.4582 37.7347C76.4162 37.8468 76.4162 37.9308 76.4442 37.9868C76.4722 38.0569 76.5562 38.0849 76.6963 38.0849C76.7383 38.0849 76.7943 38.0849 76.8643 38.0849C76.9203 38.0849 76.9903 38.0849 77.0604 38.0569L76.7943 38.8133C76.6122 38.8553 76.4722 38.8833 76.3742 38.8973C76.2762 38.8973 76.1641 38.9113 76.0101 38.9113C75.632 38.9113 75.408 38.7853 75.3239 38.5331C75.2819 38.4071 75.2819 38.211 75.3239 37.9728C75.0019 38.239 74.6098 38.4771 74.1196 38.6872C73.6435 38.8833 73.1534 38.9814 72.6493 38.9814C72.0471 38.9814 71.627 38.8133 71.361 38.4631C71.0949 38.1129 71.0669 37.6927 71.249 37.1744C71.445 36.6141 71.7811 36.1799 72.2712 35.8717C72.7473 35.5636 73.3075 35.3675 73.9376 35.2974L75.73 35.1013L75.758 35.0873ZM72.4112 37.1464C72.3132 37.4406 72.3412 37.6787 72.5093 37.8468C72.6773 38.0149 72.9154 38.0989 73.2374 38.0989C73.6155 38.0989 74.0216 38.0149 74.4277 37.8468C75.1279 37.5666 75.59 37.1184 75.8001 36.4881L76.0941 35.6616C75.9401 35.7457 75.744 35.8017 75.52 35.8577C75.2959 35.9138 75.0719 35.9418 74.8618 35.9698L74.1757 36.0538C73.7696 36.0959 73.4475 36.1799 73.2094 36.2779C72.8173 36.46 72.5513 36.7402 72.4112 37.1324V37.1464Z" fill="#717070"/>
<path d="M81.0583 30.9961H82.1506L81.5625 32.691H82.5847L82.2906 33.5314H81.2684L79.882 37.4955C79.812 37.7056 79.84 37.8457 79.9661 37.9157C80.0361 37.9577 80.1621 37.9717 80.3582 37.9857C80.4142 37.9857 80.4702 37.9857 80.5262 37.9857C80.5822 37.9857 80.6662 37.9857 80.7363 37.9717L80.4562 38.7842C80.3162 38.8122 80.1761 38.8402 80.0361 38.8542C79.8961 38.8682 79.742 38.8822 79.588 38.8822C79.0839 38.8822 78.7898 38.7561 78.6918 38.518C78.5937 38.2799 78.6217 37.9577 78.7478 37.5655L80.1621 33.5454H79.2939L79.588 32.705H80.4562L81.0443 31.0101L81.0583 30.9961Z" fill="#717070"/>
<path d="M83.9114 32.7207H85.0177L82.9031 38.7718H81.7969L83.9114 32.7207ZM84.7096 30.4375H85.8158L85.4097 31.6001H84.3035L84.7096 30.4375Z" fill="#717070"/>
<path d="M89.5591 32.5253C90.3853 32.5253 90.9874 32.7915 91.3795 33.3097C91.7716 33.828 91.7856 34.5984 91.4215 35.6069C91.0854 36.5874 90.5393 37.3999 89.8251 38.0302C89.097 38.6745 88.2147 38.9827 87.1505 38.9827C86.2683 38.9827 85.6661 38.7025 85.3581 38.1283C85.036 37.568 85.05 36.7976 85.3861 35.8451C85.7502 34.8225 86.2963 34.0101 87.0525 33.4078C87.8086 32.8055 88.6489 32.4973 89.5591 32.4973V32.5253ZM87.5566 38.1142C88.2708 38.1142 88.8449 37.8621 89.279 37.3438C89.7271 36.8256 90.0492 36.2653 90.2732 35.635C90.4693 35.0747 90.5393 34.6124 90.4693 34.2482C90.3573 33.6879 89.9372 33.4078 89.209 33.4078C88.5508 33.4078 87.9907 33.6459 87.5286 34.1222C87.0665 34.5984 86.7164 35.1727 86.4783 35.8451C86.2543 36.4894 86.2123 37.0357 86.3523 37.4559C86.4923 37.8901 86.8984 38.1002 87.5426 38.1002L87.5566 38.1142Z" fill="#717070"/>
<path d="M94.0191 32.7213H95.0414L94.7333 33.5898C95.1674 33.2396 95.5735 32.9735 95.9656 32.8194C96.3577 32.6653 96.7638 32.5813 97.1839 32.5953C98.0941 32.5953 98.6122 32.9034 98.7243 33.5057C98.7803 33.8419 98.7103 34.3042 98.5002 34.9205L97.1419 38.8145H96.0356L97.3799 34.9765C97.506 34.6123 97.562 34.3042 97.52 34.08C97.464 33.7018 97.1839 33.5057 96.6798 33.5057C96.4277 33.5057 96.2037 33.5337 96.0216 33.5758C95.6995 33.6598 95.3775 33.8279 95.0694 34.08C94.8173 34.2761 94.6353 34.4862 94.4953 34.6964C94.3692 34.9065 94.2292 35.2146 94.0892 35.6068L92.9689 38.7865H91.8906L94.0191 32.7073V32.7213Z" fill="#717070"/>
<path d="M103.73 35.1291C103.982 35.1011 104.192 35.003 104.332 34.8349C104.417 34.7369 104.487 34.6108 104.543 34.4427C104.669 34.0925 104.627 33.8404 104.417 33.6863C104.206 33.5322 103.856 33.4482 103.38 33.4482C102.82 33.4482 102.372 33.5883 102.036 33.8824C101.854 34.0365 101.686 34.2746 101.532 34.5968H100.524C100.804 33.8404 101.252 33.3221 101.84 33.028C102.442 32.7338 103.058 32.5938 103.716 32.5938C104.473 32.5938 105.033 32.7338 105.411 33C105.789 33.2801 105.873 33.7003 105.663 34.2746L104.431 37.7765C104.389 37.8885 104.389 37.9726 104.417 38.0286C104.445 38.0986 104.529 38.1266 104.669 38.1266C104.711 38.1266 104.767 38.1266 104.837 38.1266C104.893 38.1266 104.963 38.1266 105.033 38.0986L104.767 38.855C104.585 38.897 104.445 38.9251 104.347 38.9391C104.248 38.9391 104.136 38.9531 103.982 38.9531C103.604 38.9531 103.38 38.827 103.296 38.5749C103.254 38.4488 103.254 38.2527 103.296 38.0146C102.974 38.2807 102.582 38.5188 102.092 38.7289C101.616 38.9251 101.126 39.0231 100.622 39.0231C100.019 39.0231 99.5994 38.855 99.3333 38.5048C99.0812 38.1687 99.0392 37.7344 99.2213 37.2162C99.4173 36.6559 99.7534 36.2216 100.244 35.9135C100.734 35.6053 101.28 35.4092 101.91 35.3392L103.702 35.1431L103.73 35.1291ZM100.384 37.1881C100.286 37.4823 100.314 37.7204 100.482 37.8885C100.65 38.0566 100.888 38.1406 101.21 38.1406C101.588 38.1406 101.994 38.0566 102.4 37.8885C103.1 37.6084 103.562 37.1601 103.772 36.5298L104.066 35.7034C103.912 35.7874 103.716 35.8434 103.492 35.8995C103.268 35.9555 103.044 35.9835 102.834 36.0115L102.148 36.0956C101.742 36.1376 101.42 36.2216 101.182 36.3197C100.79 36.5018 100.524 36.7819 100.384 37.1741V37.1881Z" fill="#717070"/>
<path d="M109.053 30.479H110.132L107.219 38.8133H106.141L109.053 30.479Z" fill="#717070"/>
<path d="M122.023 30.4922L121.673 31.4867H118.704L116.128 38.8265H114.923L117.5 31.4867H114.531L114.881 30.4922H122.037H122.023Z" fill="#717070"/>
<path d="M123.691 35.1574C123.943 35.1294 124.153 35.0313 124.293 34.8632C124.377 34.7652 124.447 34.6391 124.503 34.471C124.63 34.1209 124.588 33.8687 124.377 33.7146C124.167 33.5606 123.817 33.4765 123.341 33.4765C122.781 33.4765 122.333 33.6166 121.997 33.9107C121.815 34.0648 121.647 34.3029 121.493 34.6251H120.485C120.765 33.8687 121.213 33.3504 121.801 33.0563C122.389 32.7621 123.019 32.6221 123.677 32.6221C124.433 32.6221 124.994 32.7621 125.372 33.0283C125.75 33.2944 125.834 33.7286 125.624 34.3029L124.391 37.8048C124.349 37.9168 124.349 38.0009 124.377 38.0569C124.405 38.1269 124.489 38.155 124.63 38.155C124.672 38.155 124.728 38.155 124.798 38.155C124.868 38.155 124.924 38.155 124.994 38.1269L124.728 38.8833C124.545 38.9254 124.405 38.9534 124.307 38.9674C124.209 38.9674 124.097 38.9814 123.943 38.9814C123.565 38.9814 123.341 38.8553 123.257 38.6032C123.215 38.4771 123.215 38.281 123.257 38.0429C122.935 38.309 122.543 38.5472 122.053 38.7573C121.577 38.9534 121.087 39.0514 120.583 39.0514C119.98 39.0514 119.56 38.8833 119.294 38.5332C119.042 38.197 119 37.7628 119.182 37.2445C119.378 36.6842 119.714 36.25 120.204 35.9418C120.681 35.6336 121.241 35.4375 121.871 35.3675L123.663 35.1714L123.691 35.1574ZM120.344 37.2165C120.246 37.5106 120.274 37.7487 120.443 37.9168C120.611 38.0849 120.849 38.169 121.171 38.169C121.549 38.169 121.955 38.0849 122.361 37.9168C123.061 37.6367 123.523 37.1885 123.733 36.5581L124.027 35.7317C123.873 35.8157 123.677 35.8718 123.453 35.9278C123.229 35.9838 123.005 36.0118 122.795 36.0399L122.109 36.1239C121.703 36.1659 121.381 36.25 121.143 36.348C120.751 36.5301 120.485 36.8103 120.344 37.2025V37.2165Z" fill="#717070"/>
<path d="M128.177 32.7886H129.283L127.169 38.8397H126.062L128.177 32.7886ZM128.975 30.5054H130.081L129.675 31.668H128.569L128.975 30.5054Z" fill="#717070"/>
<path d="M131.677 32.7798L131.243 37.5703L134.169 32.7798H135.388L134.982 37.5423L137.964 32.7798H139.042L135.052 38.859H133.931L134.267 34.1525L131.355 38.859H130.234L130.5 32.7798H131.691H131.677Z" fill="#717070"/>
<path d="M142.933 35.1838C143.186 35.1557 143.396 35.0577 143.536 34.8896C143.62 34.7916 143.69 34.6655 143.746 34.4974C143.872 34.1472 143.83 33.8951 143.62 33.741C143.41 33.5869 143.06 33.5029 142.583 33.5029C142.023 33.5029 141.575 33.643 141.239 33.9371C141.057 34.0912 140.889 34.3293 140.735 34.6515H139.727C140.007 33.8951 140.455 33.3768 141.043 33.0827C141.645 32.7885 142.261 32.6484 142.919 32.6484C143.676 32.6484 144.236 32.7885 144.614 33.0547C144.992 33.3208 145.076 33.755 144.866 34.3293L143.634 37.8311C143.592 37.9432 143.592 38.0272 143.62 38.0833C143.648 38.1533 143.732 38.1813 143.872 38.1813C143.914 38.1813 143.97 38.1813 144.04 38.1813C144.096 38.1813 144.166 38.1813 144.236 38.1533L143.97 38.9097C143.788 38.9517 143.648 38.9797 143.55 38.9937C143.452 38.9937 143.34 39.0078 143.186 39.0078C142.807 39.0078 142.583 38.8817 142.499 38.6296C142.457 38.5035 142.457 38.3074 142.499 38.0693C142.177 38.3354 141.785 38.5735 141.295 38.7836C140.819 38.9797 140.329 39.0778 139.825 39.0778C139.223 39.0778 138.802 38.9097 138.536 38.5595C138.284 38.2233 138.242 37.7891 138.424 37.2709C138.62 36.7106 138.957 36.2763 139.447 35.9682C139.923 35.66 140.483 35.4639 141.113 35.3939L142.905 35.1978L142.933 35.1838ZM139.587 37.2428C139.489 37.537 139.517 37.7751 139.685 37.9432C139.853 38.1113 140.091 38.1953 140.413 38.1953C140.791 38.1953 141.197 38.1113 141.603 37.9432C142.303 37.6631 142.765 37.2148 142.975 36.5845L143.27 35.7581C143.116 35.8421 142.919 35.8981 142.695 35.9542C142.471 36.0102 142.247 36.0382 142.037 36.0662L141.351 36.1503C140.945 36.1923 140.623 36.2763 140.385 36.3744C139.993 36.5565 139.727 36.8366 139.587 37.2288V37.2428Z" fill="#717070"/>
<path d="M147.418 32.7892H148.44L148.132 33.6577C148.566 33.3075 148.972 33.0413 149.364 32.8872C149.756 32.7332 150.162 32.6491 150.582 32.6631C151.493 32.6631 152.011 32.9713 152.123 33.5736C152.179 33.9098 152.109 34.372 151.899 34.9883L150.54 38.8824H149.434L150.778 35.0444C150.904 34.6802 150.96 34.372 150.918 34.1479C150.862 33.7697 150.582 33.5736 150.078 33.5736C149.826 33.5736 149.602 33.6016 149.42 33.6436C149.098 33.7277 148.776 33.8958 148.468 34.1479C148.216 34.344 148.034 34.5541 147.894 34.7642C147.768 34.9743 147.628 35.2825 147.488 35.6747L146.367 38.8544H145.289L147.418 32.7752V32.7892Z" fill="#717070"/>
<path d="M159.113 30.5469H160.821L160.891 37.6066L165.876 30.5609H167.571L164.658 38.8952H163.51L165.232 33.9787C165.288 33.8106 165.4 33.5304 165.54 33.1382C165.68 32.746 165.834 32.3258 166.002 31.8776L161.017 38.9092H159.827L159.743 31.8776L159.659 32.1297C159.589 32.3398 159.491 32.648 159.351 33.0682C159.211 33.4884 159.113 33.7966 159.043 33.9927L157.32 38.9092H156.172L159.085 30.5749L159.113 30.5469Z" fill="#717070"/>
<path d="M169.79 32.8347L168.376 36.8688C168.264 37.177 168.236 37.4291 168.264 37.6252C168.32 37.9894 168.614 38.1715 169.118 38.1715C169.846 38.1715 170.463 37.8493 170.953 37.219C171.219 36.8828 171.457 36.4066 171.667 35.8183L172.717 32.8347H173.795L171.667 38.9139H170.645L170.967 38.0174C170.743 38.2415 170.505 38.4376 170.253 38.6057C169.734 38.9279 169.188 39.082 168.614 39.082C167.718 39.082 167.2 38.7878 167.074 38.2135C167.004 37.9054 167.074 37.4851 167.242 36.9669L168.684 32.8347H169.79Z" fill="#717070"/>
<path d="M174.987 37.0047C174.903 37.3409 174.903 37.607 174.987 37.7891C175.155 38.1253 175.575 38.2794 176.261 38.2794C176.667 38.2794 177.059 38.1953 177.423 38.0272C177.787 37.8592 178.039 37.607 178.151 37.2709C178.249 37.0047 178.193 36.8086 177.983 36.6685C177.857 36.5845 177.577 36.4864 177.143 36.3744L176.345 36.1643C175.827 36.0382 175.477 35.8841 175.267 35.73C174.889 35.4499 174.791 35.0717 174.959 34.5814C175.155 34.0071 175.547 33.5449 176.121 33.1807C176.695 32.8305 177.353 32.6484 178.095 32.6484C179.076 32.6484 179.692 32.9146 179.944 33.4609C180.098 33.797 180.098 34.1752 179.944 34.5674H178.922C178.978 34.3433 178.964 34.1332 178.88 33.9371C178.726 33.671 178.32 33.5309 177.703 33.5309C177.283 33.5309 176.947 33.6009 176.681 33.755C176.415 33.8951 176.233 34.0912 176.149 34.3433C176.051 34.6095 176.121 34.8196 176.345 34.9737C176.471 35.0717 176.681 35.1557 176.975 35.2258L177.647 35.3939C178.376 35.576 178.852 35.7441 179.062 35.9121C179.398 36.1783 179.454 36.5845 179.258 37.1448C179.062 37.6911 178.684 38.1533 178.109 38.5455C177.535 38.9377 176.793 39.1338 175.897 39.1338C174.931 39.1338 174.315 38.9237 174.048 38.5175C173.782 38.1113 173.754 37.593 173.936 36.9907H174.973L174.987 37.0047Z" fill="#717070"/>
<path d="M184.926 32.7185C185.374 32.7185 185.78 32.8166 186.144 33.0267C186.494 33.2228 186.732 33.4889 186.844 33.8111C186.957 34.1192 186.971 34.4694 186.901 34.8896C186.873 35.1698 186.746 35.618 186.522 36.2343H181.845C181.649 36.8507 181.621 37.3409 181.789 37.7191C181.943 38.0973 182.321 38.2794 182.924 38.2794C183.484 38.2794 183.988 38.0973 184.45 37.7471C184.702 37.537 184.926 37.2989 185.094 37.0328H186.158C186.046 37.2569 185.878 37.509 185.612 37.7751C185.36 38.0553 185.108 38.2794 184.842 38.4475C184.408 38.7557 183.932 38.9518 183.414 39.0638C183.134 39.1198 182.826 39.1479 182.503 39.1479C181.705 39.1479 181.131 38.8677 180.767 38.3214C180.403 37.7751 180.403 37.0047 180.753 36.0102C181.089 35.0297 181.649 34.2453 182.419 33.629C183.19 33.0267 184.03 32.7185 184.926 32.7185ZM185.696 35.4079C185.808 34.9597 185.836 34.6095 185.766 34.3434C185.64 33.8531 185.234 33.601 184.548 33.601C184.058 33.601 183.582 33.7691 183.134 34.1052C182.685 34.4414 182.349 34.8756 182.153 35.3939H185.696V35.4079Z" fill="#717070"/>
<path d="M190.408 32.8633L188.993 36.8974C188.881 37.2055 188.853 37.4577 188.881 37.6538C188.937 38.018 189.231 38.2001 189.736 38.2001C190.464 38.2001 191.08 37.8779 191.57 37.2476C191.836 36.9114 192.074 36.4351 192.284 35.8468L193.334 32.8633H194.413L192.284 38.9425H191.262L191.584 38.046C191.36 38.2701 191.122 38.4662 190.87 38.6343C190.352 38.9565 189.806 39.1105 189.231 39.1105C188.335 39.1105 187.817 38.8164 187.691 38.2421C187.621 37.9339 187.691 37.5137 187.859 36.9954L189.301 32.8633H190.408Z" fill="#717070"/>
<path d="M196.425 32.8586H197.49L197.182 33.727C197.546 33.4329 197.854 33.2088 198.106 33.0687C198.54 32.8446 198.988 32.7185 199.436 32.7185C199.954 32.7185 200.318 32.8446 200.542 33.0827C200.668 33.2228 200.766 33.4189 200.808 33.685C201.159 33.3628 201.523 33.1247 201.915 32.9566C202.293 32.8025 202.685 32.7185 203.091 32.7185C203.959 32.7185 204.435 33.0127 204.547 33.601C204.603 33.9231 204.547 34.3434 204.351 34.8896L202.937 38.9377H201.817L203.301 34.7075C203.441 34.3013 203.427 34.0212 203.273 33.8671C203.105 33.713 202.881 33.643 202.573 33.643C202.153 33.643 201.733 33.7831 201.341 34.0492C200.934 34.3153 200.626 34.7636 200.416 35.3939L199.184 38.9237H198.078L199.464 34.9597C199.604 34.5535 199.66 34.2453 199.618 34.0632C199.548 33.7831 199.296 33.643 198.848 33.643C198.442 33.643 198.022 33.7971 197.574 34.0912C197.14 34.3854 196.775 34.9317 196.509 35.7161L195.375 38.9377H194.297L196.425 32.8586Z" fill="#717070"/>
<path d="M213.247 32.718C214.073 32.718 214.675 32.9841 215.067 33.5024C215.459 34.0206 215.473 34.791 215.109 35.7996C214.773 36.7801 214.227 37.5925 213.513 38.2228C212.784 38.8672 211.902 39.1753 210.838 39.1753C209.956 39.1753 209.354 38.8952 209.046 38.3209C208.723 37.7606 208.737 36.9902 209.074 36.0377C209.438 35.0152 209.984 34.2027 210.74 33.6004C211.496 32.9981 212.336 32.6899 213.247 32.6899V32.718ZM211.244 38.3069C211.958 38.3069 212.532 38.0547 212.967 37.5365C213.415 37.0182 213.737 36.4579 213.961 35.8276C214.157 35.2673 214.227 34.805 214.157 34.4409C214.045 33.8806 213.625 33.6004 212.896 33.6004C212.238 33.6004 211.678 33.8385 211.216 34.3148C210.754 34.791 210.404 35.3653 210.166 36.0377C209.942 36.682 209.9 37.2283 210.04 37.6485C210.18 38.0687 210.586 38.2929 211.23 38.2929L211.244 38.3069Z" fill="#717070"/>
<path d="M218.302 31.9764C218.47 31.5562 218.652 31.2481 218.862 31.052C219.24 30.7018 219.787 30.5337 220.501 30.5337C220.571 30.5337 220.641 30.5337 220.711 30.5337C220.781 30.5337 220.865 30.5337 220.949 30.5477L220.627 31.4722C220.515 31.4722 220.431 31.4722 220.389 31.4582C220.333 31.4582 220.291 31.4582 220.249 31.4582C219.913 31.4582 219.688 31.5422 219.562 31.6963C219.436 31.8504 219.268 32.2706 219.03 32.9289H220.109L219.829 33.7414H218.75L216.916 38.9801H215.852L217.686 33.7414H216.79L217.07 32.9289H217.966L218.302 31.9764Z" fill="#717070"/>
<path d="M226.114 30.6455H232.234L231.87 31.6821H226.94L226.058 34.2034H230.385L230.035 35.1979H225.708L224.378 38.9799H223.188L226.1 30.6455H226.114Z" fill="#717070"/>
<path d="M232.833 32.9485H233.94L231.825 38.9996H230.719L232.833 32.9485ZM233.631 30.6653H234.738L234.332 31.8279H233.225L233.631 30.6653Z" fill="#717070"/>
<path d="M235.832 32.9293H236.854L236.546 33.7978C236.98 33.4476 237.386 33.1815 237.778 33.0274C238.17 32.8733 238.576 32.7893 238.996 32.8033C239.907 32.8033 240.425 33.1114 240.537 33.7137C240.593 34.0499 240.523 34.5122 240.313 35.1285L238.954 39.0225H237.848L239.192 35.1845C239.318 34.8203 239.374 34.5122 239.332 34.288C239.276 33.9098 238.996 33.7137 238.492 33.7137C238.24 33.7137 238.016 33.7418 237.834 33.7838C237.512 33.8678 237.19 34.0359 236.882 34.288C236.63 34.4841 236.448 34.6943 236.308 34.9044C236.182 35.1145 236.042 35.4226 235.902 35.8148L234.781 38.9945H233.703L235.832 32.9153V32.9293Z" fill="#717070"/>
<path d="M245.637 32.8083C246.085 32.8083 246.491 32.9064 246.855 33.1165C247.205 33.3266 247.443 33.5788 247.555 33.9009C247.667 34.2091 247.681 34.5593 247.611 34.9795C247.583 35.2596 247.457 35.7079 247.233 36.3242H242.556C242.36 36.9405 242.332 37.4308 242.5 37.809C242.654 38.1872 243.032 38.3692 243.634 38.3692C244.195 38.3692 244.699 38.1872 245.161 37.837C245.413 37.6269 245.637 37.3887 245.805 37.1226H246.869C246.757 37.3467 246.589 37.5988 246.323 37.865C246.071 38.1451 245.819 38.3693 245.553 38.5373C245.119 38.8455 244.643 39.0416 244.125 39.1537C243.845 39.2097 243.536 39.2377 243.214 39.2377C242.416 39.2377 241.842 38.9576 241.478 38.4113C241.114 37.865 241.114 37.0946 241.464 36.1001C241.8 35.1196 242.36 34.3351 243.13 33.7188C243.901 33.1165 244.741 32.8083 245.637 32.8083ZM246.407 35.4978C246.519 35.0495 246.547 34.6993 246.477 34.4332C246.351 33.9429 245.945 33.6908 245.259 33.6908C244.769 33.6908 244.293 33.8589 243.845 34.1951C243.396 34.5312 243.06 34.9655 242.864 35.4837H246.407V35.4978Z" fill="#717070"/>
<path d="M256.55 30.707H257.909L258.189 39.0554H256.872L256.858 36.5621H253.371L251.537 39.0554H250.305L256.55 30.721V30.707ZM256.788 35.6236L256.732 31.9397L254.016 35.6236H256.774H256.788Z" fill="#717070"/>
<path d="M261.535 32.9608H262.557L262.193 34.0113C262.347 33.8012 262.641 33.5631 263.075 33.2689C263.509 32.9748 263.929 32.8347 264.363 32.8347C264.377 32.8347 264.419 32.8347 264.461 32.8347C264.503 32.8347 264.587 32.8347 264.7 32.8627L264.321 33.9413C264.321 33.9413 264.209 33.9273 264.153 33.9133C264.097 33.9133 264.041 33.9133 263.971 33.9133C263.425 33.9133 262.949 34.0814 262.543 34.4035C262.137 34.7397 261.857 35.1179 261.703 35.5521L260.484 39.054H259.406L261.535 32.9748V32.9608Z" fill="#717070"/>
<path d="M266.676 31.281H267.768L267.18 32.9759H268.202L267.908 33.8163H266.886L265.499 37.7804C265.429 37.9905 265.457 38.1306 265.583 38.2006C265.653 38.2426 265.779 38.2566 265.975 38.2566C266.031 38.2566 266.087 38.2566 266.143 38.2566C266.199 38.2566 266.283 38.2566 266.353 38.2426L266.073 39.0551C265.933 39.0831 265.793 39.1111 265.653 39.1251C265.513 39.1391 265.359 39.1531 265.205 39.1531C264.701 39.1531 264.407 39.027 264.309 38.7889C264.211 38.5508 264.239 38.2286 264.365 37.8364L265.779 33.8163H264.911L265.205 32.9759H266.073L266.662 31.281H266.676Z" fill="#717070"/>
<path d="M268.713 37.1492C268.629 37.4854 268.629 37.7516 268.713 37.9337C268.881 38.2698 269.301 38.4239 269.988 38.4239C270.394 38.4239 270.786 38.3399 271.15 38.1718C271.514 38.0037 271.766 37.7516 271.878 37.4154C271.976 37.1492 271.92 36.9531 271.71 36.8131C271.584 36.729 271.304 36.631 270.87 36.5189L270.072 36.3088C269.553 36.1827 269.203 36.0287 268.993 35.8746C268.615 35.5944 268.517 35.2162 268.685 34.726C268.881 34.1517 269.273 33.6894 269.848 33.3252C270.422 32.9751 271.08 32.793 271.822 32.793C272.802 32.793 273.418 33.0591 273.67 33.6054C273.824 33.9416 273.824 34.3198 273.67 34.712H272.648C272.704 34.4879 272.69 34.2777 272.606 34.0816C272.452 33.8155 272.046 33.6754 271.43 33.6754C271.01 33.6754 270.674 33.7455 270.408 33.8995C270.142 34.0396 269.96 34.2357 269.876 34.4879C269.778 34.754 269.848 34.9641 270.072 35.1182C270.198 35.2162 270.408 35.3003 270.702 35.3703L271.374 35.5384C272.102 35.7205 272.578 35.8886 272.788 36.0567C273.11 36.3228 273.18 36.729 272.984 37.2893C272.788 37.8356 272.41 38.2978 271.836 38.69C271.262 39.0823 270.52 39.2784 269.623 39.2784C268.657 39.2784 268.041 39.0682 267.775 38.662C267.509 38.2558 267.481 37.7375 267.663 37.1352H268.699L268.713 37.1492Z" fill="#717070"/>
</g>
<defs>
<clipPath id="clip0_2743_2931">
<rect width="282" height="46" fill="white"/>
</clipPath>
</defs>
</svg>
