<svg width="252" height="41" viewBox="0 0 252 41" fill="none" xmlns="http://www.w3.org/2000/svg">
<g clip-path="url(#clip0_2743_2980)">
<path d="M3.76323 41.0008H3.65061L3.32525 40.9758L3.28771 40.9009H3.26268L3.21263 40.826H3.02492L2.87476 40.7885V40.6762L3.02492 39.3653L3.06246 37.9919L2.96236 36.6436L2.79968 35.2203L2.32416 33.9718L1.79859 32.7234L1.08531 31.5997C0.835034 31.2377 0.559734 30.9006 0.27192 30.526H0.259406C-0.00338078 29.7395 -0.0409217 28.6284 0.0341602 27.5422C0.0341602 27.5422 0.0717012 27.1177 0.0341602 27.0553L0.0717012 26.1314L0.447111 25.1576L0.822521 24.1089L1.38564 23.1101L1.87367 22.1113L2.64951 21.0251L3.32525 20.0513L4.06356 18.9651L5.06465 17.3796L6.41612 15.8315L7.90525 14.3707L9.6947 12.91L11.384 11.5742L13.2361 10.2008L15.0756 8.90241L16.9401 7.55405L18.3166 6.66764L19.8057 5.76873L21.2698 4.86983L22.759 3.94595L24.0729 3.03457L25.5245 1.88597L26.8384 0.762337L28.1774 -0.0117188H28.3651L28.4402 0.0257356H28.5403L28.7029 -0.0117188L30.9929 0.32537L31.0931 0.387794H31.2808L31.4309 0.437733H31.6311L31.8063 0.462703H31.994L32.1817 0.500157L32.407 0.462703L32.2944 0.61252V0.749852L32.1442 0.89967L32.1192 0.999548L31.8939 1.16185L31.7438 1.21179L31.531 1.39906L31.4935 1.449L31.3433 1.59882L28.4652 3.50899L25.5245 5.29431L22.5587 7.04218L19.7682 8.75259L16.9151 10.6253L14.2622 12.5604L11.772 14.7078L9.64465 17.0675L9.51951 17.1424L9.36935 17.2422L9.30678 17.3421H9.25672L9.15662 17.4045L8.29317 18.5906L7.66749 19.8266L6.99175 21.0126L6.59132 22.2112L6.16585 23.5096L6.06574 24.6832L6.0282 25.9192L6.32853 26.9554L7.41722 28.3662L7.70503 28.7407L7.98033 29.1028L8.09295 29.5273L8.24312 29.9767L8.28066 30.4137L8.39328 30.9006L8.49339 31.4249L8.73115 31.8744L8.76869 32.3863L8.90634 32.8732L8.98142 33.41L9.1441 33.8969L9.09405 34.4088L9.01896 34.8832L8.73115 35.4201L8.39328 35.8945L8.24312 36.3065L8.09295 36.681L7.83017 37.0805L7.68 37.4925L7.37968 37.942L7.07935 38.3165L6.89164 38.7036L6.6664 39.0407L6.44115 39.2903L6.29099 39.5151L6.06574 39.7398L5.91558 39.8896L5.61525 40.0644L5.44006 40.2891L5.16476 40.4889L5.0146 40.6637L4.78935 40.7011H4.5641L4.41394 40.776L4.3764 40.7386L4.15115 40.8509L4.00099 40.8884L3.77574 40.9134L3.76323 41.0008Z" fill="white"/>
<path d="M37.834 34.1824C37.346 34.4445 36.933 34.4695 36.3824 34.5944L34.1675 34.6568H19.8143C18.7757 34.5944 17.5869 34.5944 16.8236 34.5194C16.6359 34.4071 16.7485 34.2947 16.7109 34.1824C16.7109 34.095 16.7109 33.9951 16.761 33.9202V33.8577C16.8986 33.5831 17.0738 33.3334 17.199 33.1087L17.7621 32.397C18.9509 31.3109 20.0521 30.1872 21.2409 29.0761L23.3056 27.2533C24.4569 25.83 26.5842 23.9823 27.1849 22.2344C28.4738 19.7624 29.7627 17.9397 31.5146 15.8173L32.6408 14.5813L33.717 13.3952L34.8808 12.2092L35.4439 11.4101C36.2948 10.3364 37.0581 9.28771 37.8715 8.22651L40.4619 6.37876C40.612 6.31634 40.637 6.24143 40.7872 6.16652C41.075 5.64216 41.8384 5.00544 41.7633 4.66835C41.7257 4.45611 40.5369 4.01914 40.4619 3.98168C40.0614 3.81938 40.2742 3.85684 39.9738 3.56969C39.8237 3.45732 39.661 3.34496 39.5484 3.2326C39.2605 3.12023 38.9602 3.00787 38.6599 2.89551C38.0592 2.68327 38.1218 2.69575 37.7964 2.14642C37.8715 1.95915 37.7339 1.89673 37.7964 1.74691C37.5462 1.62206 37.8465 1.26 37.7339 1.02279C37.3585 0.473463 38.2845 0.498432 38.6599 0.236252L40.3743 0.173828H47.2943C47.5446 0.173828 47.5946 0.273706 47.6947 0.3611C47.8074 0.548371 47.895 0.62328 47.895 0.960369C47.92 1.27249 47.8574 1.52218 47.7698 1.89673L43.4651 16.5289L39.2105 31.186C39.1104 31.623 38.8726 32.0849 38.6849 32.5593C38.4972 33.0837 38.322 33.7204 37.834 34.2073V34.1824Z" fill="white"/>
<path d="M61.1479 21.2252L60.8726 22.2364H58.8203L64.5265 1.56166C64.6767 1.11221 64.977 0.875 65.4025 0.875H84.6986C85.149 0.875 85.3242 1.1247 85.1991 1.56166L79.4929 22.2489H77.4531L77.7284 21.2377H61.1479V21.2252ZM80.4439 2.72275C80.4815 3.22214 80.519 3.75898 80.519 4.33328H81.6327L81.1196 6.16854H76.6648C76.3019 8.76538 76.1017 10.688 76.0516 11.8991C77.0527 10.5008 77.9787 8.95265 78.8547 7.27969L80.5065 7.7666C79.0674 10.4383 77.6283 12.5732 76.2143 14.1838C76.1517 14.2462 76.0892 14.2836 76.0516 14.3461C76.1017 14.9828 76.1517 15.5571 76.2143 16.069C76.2643 16.5933 76.3394 16.8805 76.402 16.868C76.5396 16.8305 76.6773 16.6682 76.8024 16.3811C77.0527 15.6944 77.2905 14.8579 77.5032 13.8716L79.1675 14.3336C78.5669 16.2562 77.9787 17.6421 77.3656 18.491C77.0527 18.8406 76.7774 19.0403 76.5647 19.1028C76.3269 19.2027 76.1017 19.2401 75.8514 19.2276C75.4009 19.1402 75.038 18.8656 74.7627 18.3287C74.575 17.7544 74.4248 17.0428 74.3498 16.1938C73.1484 17.3924 72.0097 18.4036 70.946 19.2526L69.6947 18.0541C70.2703 17.6171 70.8334 17.1676 71.3965 16.7307C68.8688 17.3174 66.1909 17.6795 63.3503 17.8044L63.4879 15.9067C67.1419 15.632 69.995 15.2325 72.0097 14.7081L71.9096 16.3187C72.8231 15.5072 73.5864 14.7706 74.2497 14.0964C74.1871 12.0364 74.3748 9.4021 74.8253 6.16854H66.3911L66.8916 4.33328H75.1381C75.2382 3.78395 75.3383 3.24711 75.4635 2.72275H66.5162C66.316 2.72275 66.2159 2.82262 66.1658 3.0099L61.6359 19.4024H78.2415L82.7715 3.0099C82.7965 2.82262 82.7339 2.72275 82.5462 2.72275H80.4314H80.4439ZM71.9847 13.7843C71.9346 13.959 71.822 14.034 71.6844 14.034H64.5015C64.3513 14.009 64.2763 13.9341 64.3388 13.7843L65.9531 7.94138C66.0032 7.79157 66.0907 7.71666 66.2409 7.71666H73.4112C73.5739 7.71666 73.6365 7.79157 73.5989 7.94138L71.9722 13.7843H71.9847ZM71.2714 9.36465H67.4923C67.4172 9.36465 67.3922 9.37713 67.3922 9.42707L66.6038 12.2861C66.6038 12.2861 66.6038 12.361 66.6539 12.386H70.4455C70.5206 12.361 70.5456 12.3485 70.5706 12.2861L71.3465 9.42707C71.3465 9.42707 71.3465 9.36465 71.2714 9.36465ZM78.5669 4.33328C78.5418 3.69656 78.5168 3.15971 78.4292 2.72275H77.2905C77.1778 3.24711 77.0902 3.78395 76.9901 4.33328H78.5669Z" fill="white"/>
<path d="M99.7885 19.4602C102.441 14.9532 104.619 10.6334 106.371 6.56339L108.285 7.08775C106.408 11.2077 104.293 15.3402 101.953 19.4602H108.435L107.885 21.4952H86.0234L86.5865 19.4602H99.7885ZM101.052 3.10511L101.841 0.246094H103.956L103.155 3.10511H112.402L111.839 5.14013H91.129L91.6671 3.10511H101.052ZM93.0061 7.12521L95.1834 6.67575C95.221 11.2327 95.0458 14.9781 94.6954 17.8621L92.518 18.1617C93.0311 14.5536 93.1938 10.8706 93.0061 7.12521Z" fill="white"/>
<path d="M117.509 21.0218L117.221 22.0705H115.094L117.859 12.0452C117.997 11.5708 118.297 11.3211 118.785 11.3211H134.728C135.216 11.3211 135.428 11.5708 135.278 12.0452L132.488 22.0705H130.348L130.648 21.0218H117.509ZM135.504 7.83787L116.721 9.31108C116.733 8.67435 116.746 7.96272 116.746 7.20115L119.073 7.03885C121.326 4.97886 123.528 2.66917 125.668 0.134766L127.094 1.19597C125.855 2.75657 124.129 4.64177 121.876 6.85157L134.327 5.96516C134.165 5.57813 133.451 4.56686 132.162 2.93136L134.152 1.53306C136.154 4.32965 137.643 6.67679 138.619 8.58696L136.617 9.88537C136.292 9.22368 135.916 8.53702 135.491 7.83787H135.504ZM118.059 18.9743H131.211L132.688 13.6558C132.738 13.456 132.663 13.3437 132.438 13.3437H119.924C119.686 13.3437 119.561 13.456 119.524 13.6558L118.034 18.9743H118.059Z" fill="white"/>
<path d="M145.98 12.809L147.782 12.9089C146.518 16.4671 144.954 19.3885 143.064 21.6233L141.312 21.0365C143.477 18.4022 145.042 15.6805 145.98 12.809ZM144.941 7.87755L146.506 6.39186C147.219 6.94119 147.945 7.71525 148.696 8.71403L147.094 10.1123C146.293 9.08857 145.58 8.33949 144.941 7.86506V7.87755ZM146.593 2.15952L148.17 0.698803C148.921 1.28559 149.709 2.10958 150.498 3.19576L148.871 4.60654C148.007 3.47042 147.244 2.6714 146.593 2.14704V2.15952ZM148.495 19.0889L148.157 19.9254L146.693 19.401L148.32 15.5931C148.533 15.2561 148.746 15.0813 149.046 15.0937H161.998L162.21 14.3197C162.248 14.1948 162.185 14.1324 162.048 14.1324H148.558L149.008 12.5593H163.937C164.238 12.5843 164.325 12.7092 164.263 12.9464L163.086 17.2911H161.409L161.585 16.6543H149.872C149.647 16.6543 149.484 16.8166 149.384 17.0913L149.184 17.5158H163.387C163.749 17.5158 163.887 17.6906 163.775 18.0402C163.249 19.5134 162.748 20.5496 162.273 21.1114C162.085 21.2487 161.922 21.3736 161.797 21.5234C160.233 22.5721 156.179 22.7095 149.584 21.9229L149.947 20.2C152.387 20.587 155.115 20.7618 158.106 20.7618C159.683 20.7244 160.721 20.5121 161.259 20.0877C161.409 19.838 161.535 19.5134 161.647 19.1014C161.672 19.0889 161.622 19.0764 161.472 19.0764H148.52L148.495 19.0889ZM149.221 9.08857L150.548 9.41318C150.272 10.0374 149.822 11.0112 149.159 12.3221L147.87 11.8727C148.345 11.0362 148.808 10.1123 149.221 9.07609V9.08857ZM151.386 8.18967L149.246 8.45185C149.334 8.0024 149.334 7.50301 149.271 6.94119L150.485 6.7664C150.948 6.40435 151.461 5.96738 151.999 5.50544C151.411 4.78132 150.798 4.23199 150.135 3.83248L151.261 2.47164C151.336 2.47164 151.474 2.57152 151.711 2.75879C152.412 1.92231 153.088 1.02341 153.789 0.0371094L154.965 0.761226C154.414 1.51031 153.651 2.45916 152.637 3.62024C152.825 3.79503 153 4.00727 153.188 4.19454C153.814 3.45794 154.339 2.74631 154.777 2.04716L156.129 2.55903C155.578 3.50788 154.439 4.81878 152.675 6.4418L154.152 6.1921C154.152 5.90495 154.126 5.63029 154.101 5.40556L155.528 5.01854C155.653 5.8675 155.653 6.89125 155.528 8.12724L154.076 8.43936C154.101 8.20215 154.101 7.97743 154.126 7.76518L153.038 7.92749L151.912 11.9975H150.335L151.399 8.1647L151.386 8.18967ZM153.188 9.37572L154.702 9.13851C154.64 10.2497 154.564 11.0986 154.464 11.6979L152.975 11.8103C153.125 10.8739 153.2 10.0749 153.2 9.37572H153.188ZM159.332 11.7853C159.282 11.9101 159.207 11.9726 159.107 11.9726H155.065C154.952 11.9476 154.915 11.8852 154.94 11.7853L156.091 7.67779C156.129 7.57791 156.191 7.51549 156.304 7.51549H160.346C160.471 7.51549 160.508 7.57791 160.483 7.67779L159.345 11.7853H159.332ZM156.554 5.74265H161.009L160.684 6.92871H156.241L156.567 5.74265H156.554ZM158.832 8.71403H157.13C157.067 8.71403 157.042 8.739 157.055 8.75148L156.504 10.7241C156.504 10.7241 156.504 10.774 156.529 10.7865H158.231L158.331 10.7366L158.869 8.75148C158.869 8.75148 158.857 8.71403 158.819 8.71403H158.832ZM163.149 8.02737L161.009 8.28955C161.097 7.82761 161.097 7.30325 161.047 6.72895L162.385 6.56665C162.761 6.26701 163.174 5.89247 163.624 5.46799C163.086 4.70642 162.473 4.09466 161.81 3.62024L161.91 3.47042H156.517L156.842 2.28437H162.423L162.16 3.19576L162.986 2.28437C163.099 2.28437 163.211 2.40922 163.412 2.59649C164.025 1.8474 164.65 1.03589 165.289 0.124503L166.465 0.861105C165.989 1.56025 165.251 2.43419 164.3 3.52036C164.463 3.72012 164.65 3.96981 164.851 4.20702C165.501 3.43297 166.065 2.68388 166.515 1.98473L167.866 2.48413C167.391 3.28315 166.29 4.54411 164.525 6.26701L165.877 6.07974C165.852 5.63029 165.814 5.31817 165.814 5.18084L167.328 4.80629C167.428 5.92992 167.454 7.0161 167.416 8.05233L165.889 8.327C165.914 8.10227 165.914 7.89003 165.889 7.67779L164.776 7.82761L163.587 12.0974H162.023L163.149 8.0024V8.02737ZM156.955 4.05721H161.547L161.234 5.26823H156.629L156.955 4.05721ZM157.743 0.511531H162.623L162.298 1.6851H157.418L157.755 0.511531H157.743ZM160.959 8.82639L162.335 9.08857C161.91 10.1997 161.459 11.1985 161.047 12.0849L159.708 11.7478C160.045 11.0986 160.471 10.1248 160.946 8.82639H160.959ZM164.826 9.17597L166.352 8.85136C166.365 10.1747 166.352 11.1361 166.277 11.7478L164.763 11.9601C164.901 10.799 164.926 9.8876 164.826 9.17597Z" fill="white"/>
<path d="M180.893 16.7895H172.07L172.609 14.8543H181.981C182.044 14.6296 182.106 14.4173 182.181 14.2176L182.582 12.7694H172.721L173.259 10.8342H183.045L183.558 8.94902H175.449L176 7.00139H184.109L184.609 5.20358H175.487L176.012 3.25596H181.543C181.255 2.41948 180.943 1.80773 180.642 1.37076L182.619 0.134766C183.07 0.759004 183.458 1.60797 183.796 2.64421L182.732 3.25596H188.664C189.79 1.84518 190.591 0.808943 191.004 0.159735L192.543 1.10858C191.98 1.83269 191.429 2.54433 190.916 3.26844H196.234L195.696 5.21607H186.624L186.123 7.01388H194.082L193.544 8.9615H185.585L185.047 10.8467H194.795L194.282 12.7818H184.609L184.221 14.2301C184.146 14.4548 184.084 14.667 183.996 14.8668H193.244L192.705 16.8019H184.321C185.673 19.1241 188.401 20.3102 192.48 20.3476L191.354 22.4326C191.279 22.4076 191.191 22.4076 191.104 22.4326C186.774 22.1205 183.858 20.5599 182.319 17.7633C181.994 18.1004 181.681 18.4125 181.381 18.7121C179.191 20.5224 175.587 21.7459 170.531 22.3077L170.644 20.1229C175.712 19.8607 179.128 18.7496 180.88 16.7895H180.893Z" fill="white"/>
<path d="M201.825 11.8576C201.212 12.357 200.599 12.819 199.948 13.2559C199.748 12.6192 199.472 12.1198 199.185 11.8077C201.65 10.1722 203.802 8.01231 205.667 5.35306L207.143 6.3019C206.292 7.36311 205.354 8.4368 204.328 9.52297L200.774 22.3448H198.922L201.825 11.8576ZM206.205 0.221814L207.706 1.10823C205.829 3.6801 203.802 5.76505 201.625 7.35062C201.362 6.7139 201.074 6.26445 200.761 5.96481C202.889 4.49161 204.691 2.58144 206.192 0.221814H206.205ZM206.818 8.39934H208.657L208.245 9.91C206.893 14.2797 205.479 17.5632 204.052 19.723L202.238 19.4234C204.015 16.7392 205.391 13.5805 206.405 9.92248L206.83 8.41183L206.818 8.39934ZM210.397 6.17705H207.381L207.894 4.34179H210.91L212.061 0.171875H213.988L212.85 4.34179H216.253L215.74 6.17705H212.337L207.882 22.2574H205.942L210.384 6.17705H210.397ZM212.749 8.68649H214.576L212.637 15.7154C212.549 16.0525 212.662 16.2148 212.987 16.2148H214.301L213.788 18.075H211.01C210.434 18.075 210.234 17.7629 210.397 17.1512L212.749 8.69898V8.68649ZM218.969 8.3494H216.053L216.566 6.48917H222.961L222.473 8.3494H220.896L217.705 19.8853C217.43 20.7718 216.929 21.4334 216.141 21.8454C215.227 22.3573 213.763 22.3199 211.761 21.6956L212.362 19.6856C214.026 20.185 215.077 20.3098 215.515 20.0102C215.69 19.8978 215.803 19.6856 215.89 19.3859L218.956 8.33692L218.969 8.3494ZM214.576 0.99587L216.466 0.221814C216.804 1.43284 217.017 2.35671 217.079 2.95598L215.19 3.60519C215.09 2.95598 214.889 2.08205 214.576 0.983385V0.99587ZM218.656 1.34544H223.937L223.411 3.20568H218.143L218.656 1.34544Z" fill="white"/>
<path d="M232.496 20.9522C229.23 21.6514 226.652 22.0758 224.75 22.2631L224.813 20.2655C225.2 20.2281 225.601 20.1782 226.051 20.1157L229.768 6.6072C229.881 6.24514 230.131 6.08284 230.444 6.08284H232.846L233.372 4.16018H235.211L234.698 6.08284H236.951C237.326 6.09532 237.464 6.2826 237.351 6.6072L234.911 15.4714C234.811 15.8584 234.548 16.0582 234.16 16.0582H229.017L227.979 19.8161C228.316 19.7662 229.743 19.4915 232.271 19.0171C232.108 18.1431 232.02 17.5688 231.97 17.3067L233.897 16.6574C234.248 19.3292 234.448 20.9772 234.461 21.6014L232.546 22.1008C232.546 21.7138 232.521 21.3143 232.483 20.9272L232.496 20.9522ZM235.049 2.34989C233.822 3.39861 232.271 4.45982 230.369 5.50854L229.042 4.22261C231.795 2.93668 233.71 1.67571 234.786 0.452207L236.6 0.577054C236.513 0.714387 236.438 0.814265 236.35 0.939113C237.101 1.70068 237.939 2.38735 238.853 2.9991L237.013 4.52224C236.275 3.84807 235.649 3.12395 235.049 2.36238V2.34989ZM234.035 11.9507H230.143L229.518 14.2104H233.097C233.309 14.2104 233.434 14.123 233.497 13.9233L234.035 11.9507ZM230.656 10.1154H234.548L235.024 8.39252C235.086 8.0804 234.974 7.94307 234.661 7.94307H231.72C231.407 7.94307 231.195 8.09289 231.132 8.39252L230.644 10.1154H230.656ZM245.986 21.2269C245.848 21.7013 245.548 21.9385 245.085 21.9385H235.875C235.462 21.9385 235.312 21.7138 235.412 21.2768L239.341 7.10659C239.441 6.74453 239.679 6.56975 240.029 6.56975H248.739C249.102 6.56975 249.239 6.75702 249.164 7.10659L247.663 12.525C247.562 12.8995 247.312 13.0868 246.949 13.0868H239.641L239.166 14.7972H247.112C247.55 14.7972 247.725 14.997 247.6 15.4215L245.998 21.2394L245.986 21.2269ZM244.947 16.62H238.653L237.802 19.7037C237.752 19.8535 237.802 19.9285 237.952 19.9285H244.034C244.184 19.9285 244.296 19.8535 244.321 19.7037L245.097 16.8197C245.147 16.6824 245.085 16.62 244.947 16.62ZM244.209 1.87547L244.634 0.339844H246.674L246.248 1.87547H250.528L251.992 2.71195C251.554 3.8231 250.853 5.134 249.902 6.63217L248.338 6.05787C249.027 4.84685 249.402 4.1477 249.427 3.99788C249.477 3.81061 249.439 3.72322 249.302 3.72322H240.868C240.742 3.72322 240.68 3.78564 240.642 3.898L239.942 6.46987H238.09L239.266 2.22504C239.341 2.00032 239.479 1.87547 239.704 1.87547H244.234H244.209ZM240.855 8.6547L240.142 11.2266H245.81C245.986 11.2266 246.111 11.1392 246.148 10.9394L246.787 8.6547C246.837 8.47992 246.762 8.40501 246.599 8.40501H241.193C241.005 8.41749 240.905 8.50489 240.855 8.6547Z" fill="white"/>
<path d="M58.0247 27.1043H59.2886L61.1156 33.1095L63.2179 27.1043H64.244L61.6412 34.5327H60.4398L58.5503 28.5275L56.448 34.5202H55.4219L58.0247 27.0918V27.1043Z" fill="white"/>
<path d="M67.6957 31.2734C67.9209 31.2484 68.1086 31.1611 68.2338 31.0112C68.3089 30.9238 68.3714 30.8115 68.4215 30.6617C68.5341 30.3495 68.4966 30.1248 68.3089 29.9875C68.1211 29.8502 67.8083 29.7752 67.3828 29.7752C66.8823 29.7752 66.4819 29.9001 66.1815 30.1623C66.0189 30.2996 65.8687 30.5118 65.731 30.799H64.8301C65.0803 30.1248 65.4808 29.6629 66.0063 29.4007C66.5444 29.1385 67.095 29.0137 67.6832 29.0137C68.3589 29.0137 68.8595 29.1385 69.1973 29.3757C69.5352 29.6254 69.6103 30 69.4226 30.5118L68.3214 33.633C68.2838 33.7329 68.2838 33.8078 68.3089 33.8578C68.3339 33.9202 68.409 33.9452 68.5341 33.9452C68.5716 33.9452 68.6217 33.9452 68.6843 33.9452C68.7343 33.9452 68.7969 33.9452 68.8595 33.9202L68.6217 34.5944C68.459 34.6318 68.3339 34.6568 68.2463 34.6693C68.1587 34.6693 68.0586 34.6818 67.9209 34.6818C67.5831 34.6818 67.3828 34.5694 67.3078 34.3447C67.2702 34.2323 67.2702 34.0575 67.3078 33.8453C67.0199 34.0825 66.6696 34.2947 66.2316 34.482C65.8061 34.6568 65.3681 34.7442 64.9177 34.7442C64.3796 34.7442 64.0042 34.5944 63.7664 34.2822C63.5286 33.9701 63.5036 33.5956 63.6663 33.1336C63.8415 32.6343 64.1418 32.2472 64.5798 31.9726C65.0052 31.6979 65.5058 31.5231 66.0689 31.4607L67.6707 31.2859L67.6957 31.2734ZM64.7049 33.1087C64.6173 33.3709 64.6424 33.5831 64.7925 33.7329C64.9427 33.8827 65.1554 33.9576 65.4432 33.9576C65.7811 33.9576 66.144 33.8827 66.5069 33.7329C67.1326 33.4832 67.5455 33.0837 67.7332 32.5219L67.996 31.7853C67.8584 31.8602 67.6832 31.9101 67.483 31.9601C67.2827 32.01 67.0825 32.035 66.8948 32.06L66.2816 32.1349C65.9187 32.1723 65.6309 32.2472 65.4182 32.3346C65.0678 32.4969 64.8301 32.7466 64.7049 33.0962V33.1087Z" fill="white"/>
<path d="M72.4331 27.627H73.4092L72.8836 29.1376H73.7971L73.5343 29.8867H72.6208L71.382 33.4199C71.3194 33.6072 71.3444 33.732 71.457 33.7944C71.5196 33.8319 71.6322 33.8444 71.8074 33.8569C71.8575 33.8569 71.9075 33.8569 71.9576 33.8569C72.0076 33.8569 72.0827 33.8569 72.1453 33.8444L71.895 34.5685C71.7699 34.5935 71.6447 34.6184 71.5196 34.6309C71.3945 34.6434 71.2568 34.6559 71.1192 34.6559C70.6687 34.6559 70.4059 34.5435 70.3183 34.3313C70.2307 34.119 70.2557 33.8319 70.3684 33.4823L71.6322 29.8992H70.8564L71.1192 29.1501H71.895L72.4206 27.6394L72.4331 27.627Z" fill="white"/>
<path d="M74.9833 29.1639H75.9719L74.0823 34.5573H73.0938L74.9833 29.1639ZM75.6966 27.1289H76.6852L76.3223 28.1651H75.3337L75.6966 27.1289Z" fill="white"/>
<path d="M80.0249 28.9898C80.7632 28.9898 81.3013 29.227 81.6516 29.689C82.002 30.1509 82.0145 30.8376 81.6892 31.7365C81.3888 32.6104 80.9008 33.3345 80.2626 33.8963C79.6119 34.4706 78.8235 34.7453 77.8725 34.7453C77.0841 34.7453 76.5461 34.4956 76.2708 33.9837C75.9829 33.4843 75.9955 32.7977 76.2958 31.9487C76.6211 31.0373 77.1092 30.3132 77.7849 29.7764C78.4607 29.2395 79.2115 28.9648 80.0249 28.9648V28.9898ZM78.2354 33.9712C78.8736 33.9712 79.3867 33.7465 79.7746 33.2846C80.175 32.8226 80.4628 32.3232 80.6631 31.7614C80.8382 31.262 80.9008 30.85 80.8382 30.5254C80.7381 30.026 80.3627 29.7764 79.712 29.7764C79.1239 29.7764 78.6233 29.9886 78.2104 30.4131C77.7974 30.8376 77.4846 31.3494 77.2719 31.9487C77.0716 32.523 77.0341 33.0099 77.1592 33.3845C77.2844 33.7715 77.6473 33.9588 78.2229 33.9588L78.2354 33.9712Z" fill="white"/>
<path d="M84.0114 29.1645H84.9249L84.6496 29.9385C85.0376 29.6264 85.4005 29.3892 85.7508 29.2519C86.1012 29.1146 86.4641 29.0396 86.8395 29.0521C87.6529 29.0521 88.1159 29.3268 88.216 29.8636C88.2661 30.1633 88.2035 30.5753 88.0158 31.1246L86.802 34.5954H85.8134L87.0147 31.1745C87.1273 30.8499 87.1774 30.5753 87.1399 30.3755C87.0898 30.0384 86.8395 29.8636 86.389 29.8636C86.1638 29.8636 85.9636 29.8886 85.8009 29.9261C85.5131 30.001 85.2253 30.1508 84.95 30.3755C84.7247 30.5503 84.5621 30.7376 84.4369 30.9248C84.3243 31.1121 84.1992 31.3868 84.074 31.7364L83.0729 34.5704H82.1094L84.0114 29.152V29.1645Z" fill="white"/>
<path d="M92.6919 31.3105C92.9171 31.2856 93.1048 31.1982 93.23 31.0483C93.3051 30.961 93.3676 30.8486 93.4177 30.6988C93.5303 30.3867 93.4928 30.1619 93.3051 30.0246C93.1173 29.8873 92.8045 29.8124 92.379 29.8124C91.8785 29.8124 91.4781 29.9372 91.1777 30.1994C91.0151 30.3367 90.8649 30.549 90.7272 30.8361H89.8263C90.0765 30.1619 90.477 29.7 91.0025 29.4378C91.5406 29.1756 92.0912 29.0508 92.6794 29.0508C93.3551 29.0508 93.8557 29.1756 94.1935 29.4128C94.5314 29.6625 94.6065 30.0371 94.4188 30.549L93.3176 33.6701C93.28 33.77 93.28 33.8449 93.3051 33.8949C93.3301 33.9573 93.4052 33.9823 93.5303 33.9823C93.5678 33.9823 93.6179 33.9823 93.6805 33.9823C93.7305 33.9823 93.7931 33.9823 93.8557 33.9573L93.6179 34.6315C93.4552 34.6689 93.3301 34.6939 93.2425 34.7064C93.1549 34.7064 93.0548 34.7189 92.9171 34.7189C92.5793 34.7189 92.379 34.6065 92.304 34.3818C92.2664 34.2694 92.2664 34.0946 92.304 33.8824C92.0162 34.1196 91.6658 34.3318 91.2278 34.5191C90.8023 34.6939 90.3643 34.7813 89.9139 34.7813C89.3758 34.7813 89.0004 34.6315 88.7626 34.3194C88.5374 34.0197 88.4998 33.6327 88.6625 33.1708C88.8377 32.6714 89.138 32.2843 89.576 32.0097C90.014 31.735 90.502 31.5602 91.0651 31.4978L92.6669 31.323L92.6919 31.3105ZM89.7011 33.1458C89.6135 33.408 89.6386 33.6202 89.7887 33.77C89.9389 33.9198 90.1516 33.9948 90.4394 33.9948C90.7773 33.9948 91.1402 33.9198 91.5031 33.77C92.1288 33.5203 92.5417 33.1208 92.7294 32.559L92.9922 31.8224C92.8546 31.8973 92.6794 31.9472 92.4792 31.9972C92.2789 32.0471 92.0787 32.0721 91.891 32.0971L91.2778 32.172C90.9149 32.2094 90.6271 32.2843 90.4144 32.3717C90.064 32.534 89.8263 32.7837 89.7011 33.1333V33.1458Z" fill="white"/>
<path d="M97.4466 27.166H98.4101L95.8073 34.5945H94.8438L97.4466 27.166Z" fill="white"/>
<path d="M109.039 27.1777L108.726 28.0642H106.073L103.77 34.6062H102.694L104.997 28.0642H102.344L102.657 27.1777H109.051H109.039Z" fill="white"/>
<path d="M110.528 31.3359C110.753 31.3109 110.941 31.2236 111.066 31.0737C111.141 30.9863 111.204 30.874 111.254 30.7242C111.366 30.412 111.329 30.1873 111.141 30.05C110.953 29.9127 110.64 29.8377 110.215 29.8377C109.714 29.8377 109.314 29.9626 109.014 30.2248C108.851 30.3621 108.701 30.5743 108.563 30.8615H107.662C107.912 30.1873 108.313 29.7254 108.838 29.4632C109.364 29.201 109.927 29.0762 110.515 29.0762C111.191 29.0762 111.692 29.201 112.029 29.4382C112.367 29.6754 112.442 30.0625 112.255 30.5743L111.154 33.6955C111.116 33.7954 111.116 33.8703 111.141 33.9203C111.166 33.9827 111.241 34.0077 111.366 34.0077C111.404 34.0077 111.454 34.0077 111.516 34.0077C111.579 34.0077 111.629 34.0077 111.692 33.9827L111.454 34.6569C111.291 34.6943 111.166 34.7193 111.078 34.7318C110.991 34.7318 110.891 34.7443 110.753 34.7443C110.415 34.7443 110.215 34.6319 110.14 34.4072C110.102 34.2948 110.102 34.12 110.14 33.9078C109.852 34.145 109.502 34.3572 109.064 34.5445C108.638 34.7193 108.2 34.8067 107.75 34.8067C107.212 34.8067 106.836 34.6569 106.599 34.3447C106.373 34.0451 106.336 33.6581 106.498 33.1961C106.674 32.6968 106.974 32.3097 107.412 32.0351C107.837 31.7604 108.338 31.5856 108.901 31.5232L110.503 31.3484L110.528 31.3359ZM107.537 33.1712C107.449 33.4334 107.474 33.6456 107.625 33.7954C107.775 33.9452 107.988 34.0201 108.275 34.0201C108.613 34.0201 108.976 33.9452 109.339 33.7954C109.965 33.5457 110.378 33.1462 110.565 32.5844L110.828 31.8478C110.69 31.9227 110.515 31.9726 110.315 32.0226C110.115 32.0725 109.915 32.0975 109.727 32.1225L109.114 32.1974C108.751 32.2348 108.463 32.3097 108.25 32.3971C107.9 32.5594 107.662 32.8091 107.537 33.1587V33.1712Z" fill="white"/>
<path d="M114.538 29.2245H115.527L113.637 34.6179H112.648L114.538 29.2245ZM115.251 27.1895H116.24L115.877 28.2257H114.888L115.251 27.1895Z" fill="white"/>
<path d="M117.664 29.2168L117.276 33.4866L119.891 29.2168H120.98L120.617 33.4616L123.283 29.2168H124.246L120.68 34.6352H119.679L119.979 30.4403L117.376 34.6352H116.375L116.613 29.2168H117.676H117.664Z" fill="white"/>
<path d="M127.723 31.3594C127.948 31.3344 128.136 31.247 128.261 31.0972C128.336 31.0098 128.399 30.8974 128.449 30.7476C128.562 30.4355 128.524 30.2108 128.336 30.0734C128.149 29.9361 127.836 29.8612 127.41 29.8612C126.91 29.8612 126.509 29.986 126.209 30.2482C126.046 30.3855 125.896 30.5978 125.758 30.8849H124.858C125.108 30.2108 125.508 29.7488 126.034 29.4866C126.572 29.2245 127.122 29.0996 127.711 29.0996C128.386 29.0996 128.887 29.2245 129.225 29.4617C129.563 29.6989 129.638 30.0859 129.45 30.5978L128.349 33.719C128.311 33.8189 128.311 33.8938 128.336 33.9437C128.361 34.0061 128.436 34.0311 128.562 34.0311C128.599 34.0311 128.649 34.0311 128.712 34.0311C128.762 34.0311 128.824 34.0311 128.887 34.0061L128.649 34.6803C128.486 34.7178 128.361 34.7427 128.274 34.7552C128.186 34.7552 128.086 34.7677 127.948 34.7677C127.611 34.7677 127.41 34.6553 127.335 34.4306C127.298 34.3182 127.298 34.1435 127.335 33.9312C127.047 34.1684 126.697 34.3807 126.259 34.5679C125.834 34.7427 125.396 34.8301 124.945 34.8301C124.407 34.8301 124.032 34.6803 123.794 34.3682C123.569 34.0686 123.531 33.6815 123.694 33.2196C123.869 32.7202 124.169 32.3332 124.607 32.0585C125.033 31.7838 125.533 31.6091 126.096 31.5466L127.698 31.3718L127.723 31.3594ZM124.732 33.1946C124.645 33.4568 124.67 33.669 124.82 33.8189C124.97 33.9687 125.183 34.0436 125.471 34.0436C125.809 34.0436 126.171 33.9687 126.534 33.8189C127.16 33.5692 127.573 33.1696 127.761 32.6078L128.023 31.8712C127.886 31.9461 127.711 31.9961 127.51 32.046C127.31 32.096 127.11 32.1209 126.922 32.1459L126.309 32.2208C125.946 32.2583 125.658 32.3332 125.446 32.4206C125.095 32.5829 124.858 32.8326 124.732 33.1821V33.1946Z" fill="white"/>
<path d="M131.73 29.225H132.644L132.368 29.9991C132.756 29.687 133.119 29.4498 133.47 29.3124C133.82 29.1751 134.183 29.1002 134.558 29.1127C135.372 29.1127 135.835 29.3873 135.935 29.9242C135.985 30.2238 135.922 30.6358 135.735 31.1851L134.521 34.6559H133.532L134.733 31.2351C134.846 30.9105 134.896 30.6358 134.859 30.4361C134.809 30.099 134.558 29.9242 134.108 29.9242C133.883 29.9242 133.682 29.9492 133.52 29.9866C133.232 30.0615 132.944 30.2113 132.669 30.4361C132.443 30.6108 132.281 30.7981 132.156 30.9854C132.043 31.1727 131.918 31.4473 131.793 31.7969L130.792 34.6309H129.828L131.73 29.2126V29.225Z" fill="white"/>
<path d="M142.183 27.2266H143.709L143.772 33.5189L148.227 27.239H149.741L147.138 34.6675H146.112L147.651 30.2853C147.701 30.1355 147.801 29.8858 147.926 29.5362C148.051 29.1867 148.189 28.8121 148.339 28.4126L143.884 34.68H142.821L142.746 28.4126L142.671 28.6373C142.608 28.8246 142.52 29.0993 142.395 29.4738C142.27 29.8484 142.183 30.123 142.12 30.2978L140.581 34.68H139.555L142.158 27.2515L142.183 27.2266Z" fill="white"/>
<path d="M151.725 29.2656L150.461 32.8612C150.361 33.1359 150.336 33.3606 150.361 33.5354C150.411 33.86 150.674 34.0223 151.125 34.0223C151.775 34.0223 152.326 33.7352 152.764 33.1734C153.002 32.8737 153.214 32.4492 153.402 31.9249L154.341 29.2656H155.304L153.402 34.684H152.489L152.776 33.885C152.576 34.0847 152.363 34.2595 152.138 34.4094C151.675 34.6965 151.187 34.8338 150.674 34.8338C149.873 34.8338 149.41 34.5717 149.298 34.0598C149.235 33.7851 149.298 33.4106 149.448 32.9486L150.737 29.2656H151.725Z" fill="white"/>
<path d="M156.37 32.9824C156.295 33.282 156.295 33.5192 156.37 33.6815C156.521 33.9812 156.896 34.1185 157.509 34.1185C157.872 34.1185 158.222 34.0436 158.548 33.8938C158.873 33.7439 159.098 33.5192 159.199 33.2196C159.286 32.9824 159.236 32.8076 159.048 32.6827C158.936 32.6078 158.685 32.5204 158.298 32.4206L157.584 32.2333C157.121 32.1209 156.808 31.9836 156.621 31.8463C156.283 31.5966 156.195 31.2595 156.345 30.8225C156.521 30.3106 156.871 29.8986 157.384 29.574C157.897 29.2619 158.485 29.0996 159.148 29.0996C160.024 29.0996 160.575 29.3368 160.8 29.8237C160.938 30.1234 160.938 30.4605 160.8 30.81H159.887C159.937 30.6103 159.924 30.423 159.849 30.2482C159.712 30.011 159.349 29.8862 158.798 29.8862C158.423 29.8862 158.122 29.9486 157.885 30.0859C157.647 30.2108 157.484 30.3855 157.409 30.6103C157.321 30.8475 157.384 31.0347 157.584 31.1721C157.697 31.2595 157.885 31.3344 158.147 31.3968L158.748 31.5466C159.399 31.7089 159.824 31.8587 160.012 32.0086C160.312 32.2458 160.362 32.6078 160.187 33.1072C160.012 33.5941 159.674 34.0061 159.161 34.3557C158.648 34.7053 157.985 34.8801 157.184 34.8801C156.32 34.8801 155.77 34.6928 155.532 34.3307C155.294 33.9687 155.269 33.5067 155.432 32.9699H156.358L156.37 32.9824Z" fill="white"/>
<path d="M165.251 29.1621C165.652 29.1621 166.015 29.2495 166.34 29.4368C166.653 29.6116 166.865 29.8488 166.966 30.1359C167.066 30.4106 167.078 30.7227 167.016 31.0972C166.991 31.3469 166.878 31.7465 166.678 32.2958H162.498C162.323 32.8451 162.298 33.2821 162.448 33.6192C162.586 33.9563 162.924 34.1186 163.462 34.1186C163.962 34.1186 164.413 33.9563 164.826 33.6441C165.051 33.4569 165.251 33.2446 165.401 33.0074H166.352C166.252 33.2072 166.102 33.4319 165.864 33.6691C165.639 33.9188 165.414 34.1186 165.176 34.2684C164.788 34.543 164.363 34.7178 163.9 34.8177C163.649 34.8676 163.374 34.8926 163.086 34.8926C162.373 34.8926 161.86 34.6429 161.535 34.156C161.209 33.6691 161.209 32.9824 161.522 32.096C161.822 31.2221 162.323 30.5229 163.011 29.9736C163.7 29.4368 164.45 29.1621 165.251 29.1621ZM165.939 31.5592C166.04 31.1597 166.065 30.8476 166.002 30.6103C165.889 30.1734 165.527 29.9486 164.913 29.9486C164.475 29.9486 164.05 30.0985 163.649 30.3981C163.249 30.6977 162.949 31.0848 162.774 31.5467H165.939V31.5592Z" fill="white"/>
<path d="M170.147 29.291L168.883 32.8866C168.783 33.1613 168.758 33.386 168.783 33.5608C168.833 33.8854 169.096 34.0477 169.546 34.0477C170.197 34.0477 170.748 33.7606 171.186 33.1988C171.423 32.8991 171.636 32.4746 171.824 31.9503L172.762 29.291H173.726L171.824 34.7094H170.91L171.198 33.9104C170.998 34.1101 170.785 34.2849 170.56 34.4347C170.097 34.7219 169.609 34.8592 169.096 34.8592C168.295 34.8592 167.832 34.597 167.719 34.0852C167.657 33.8105 167.719 33.436 167.87 32.974L169.158 29.291H170.147Z" fill="white"/>
<path d="M175.527 29.287H176.478L176.203 30.061C176.528 29.7988 176.803 29.5991 177.029 29.4742C177.417 29.2745 177.817 29.1621 178.218 29.1621C178.681 29.1621 179.006 29.2745 179.206 29.4867C179.319 29.6116 179.406 29.7863 179.444 30.0236C179.757 29.7364 180.082 29.5242 180.432 29.3744C180.77 29.237 181.121 29.1621 181.484 29.1621C182.259 29.1621 182.685 29.4243 182.785 29.9486C182.835 30.2358 182.785 30.6103 182.61 31.0972L181.346 34.7053H180.345L181.671 30.9349C181.796 30.5729 181.784 30.3232 181.646 30.1859C181.496 30.0485 181.296 29.9861 181.021 29.9861C180.645 29.9861 180.27 30.111 179.919 30.3482C179.556 30.5854 179.281 30.9849 179.093 31.5467L177.992 34.6929H177.004L178.243 31.1597C178.368 30.7976 178.418 30.5229 178.38 30.3606C178.318 30.111 178.092 29.9861 177.692 29.9861C177.329 29.9861 176.954 30.1234 176.553 30.3856C176.165 30.6478 175.84 31.1347 175.602 31.8339L174.589 34.7053H173.625L175.527 29.287Z" fill="white"/>
<path d="M190.556 29.1617C191.294 29.1617 191.833 29.3989 192.183 29.8608C192.533 30.3228 192.546 31.0094 192.22 31.9083C191.92 32.7823 191.432 33.5064 190.794 34.0682C190.143 34.6425 189.355 34.9172 188.404 34.9172C187.615 34.9172 187.077 34.6675 186.802 34.1556C186.514 33.6562 186.527 32.9695 186.827 32.1206C187.152 31.2092 187.64 30.4851 188.316 29.9482C188.992 29.4114 189.743 29.1367 190.556 29.1367V29.1617ZM188.767 34.1431C189.405 34.1431 189.918 33.9184 190.306 33.4564C190.706 32.9945 190.994 32.4951 191.194 31.9333C191.369 31.4339 191.432 31.0219 191.369 30.6973C191.269 30.1979 190.894 29.9482 190.243 29.9482C189.655 29.9482 189.155 30.1605 188.742 30.585C188.329 31.0094 188.016 31.5213 187.803 32.1206C187.603 32.6949 187.565 33.1818 187.69 33.5563C187.816 33.9309 188.179 34.1306 188.754 34.1306L188.767 34.1431Z" fill="white"/>
<path d="M195.073 28.5008C195.223 28.1262 195.386 27.8516 195.573 27.6768C195.911 27.3647 196.399 27.2148 197.037 27.2148C197.1 27.2148 197.162 27.2148 197.225 27.2148C197.288 27.2148 197.363 27.2148 197.438 27.2273L197.15 28.0513C197.05 28.0513 196.975 28.0513 196.937 28.0388C196.887 28.0388 196.85 28.0388 196.812 28.0388C196.512 28.0388 196.312 28.1137 196.199 28.2511C196.086 28.3884 195.936 28.763 195.723 29.3497H196.687L196.437 30.0739H195.473L193.834 34.7432H192.883L194.522 30.0739H193.721L193.971 29.3497H194.772L195.073 28.5008Z" fill="white"/>
<path d="M202.053 27.3145H207.521L207.196 28.2383H202.791L202.003 30.4856H205.87L205.557 31.372H201.69L200.501 34.7429H199.438L202.04 27.3145H202.053Z" fill="white"/>
<path d="M208.061 29.3671H209.05L207.16 34.7605H206.172L208.061 29.3671ZM208.775 27.332H209.763L209.4 28.3683H208.412L208.775 27.332Z" fill="white"/>
<path d="M210.738 29.35H211.652L211.376 30.1241C211.764 29.812 212.127 29.5748 212.477 29.4374C212.828 29.3001 213.191 29.2252 213.566 29.2377C214.379 29.2377 214.842 29.5123 214.943 30.0492C214.993 30.3488 214.93 30.7608 214.742 31.3101L213.529 34.7809H212.54L213.741 31.3601C213.854 31.0355 213.904 30.7608 213.866 30.5611C213.816 30.224 213.566 30.0492 213.116 30.0492C212.89 30.0492 212.69 30.0742 212.527 30.1116C212.24 30.1865 211.952 30.3363 211.677 30.5611C211.451 30.7358 211.289 30.9231 211.163 31.1104C211.051 31.2977 210.926 31.5723 210.801 31.9219L209.799 34.7559H208.836L210.738 29.3376V29.35Z" fill="white"/>
<path d="M219.501 29.2422C219.902 29.2422 220.265 29.3296 220.59 29.5169C220.903 29.7041 221.115 29.9289 221.216 30.216C221.316 30.4907 221.328 30.8028 221.266 31.1773C221.241 31.427 221.128 31.8265 220.928 32.3759H216.748C216.573 32.9252 216.548 33.3622 216.698 33.6993C216.836 34.0363 217.174 34.1986 217.712 34.1986C218.212 34.1986 218.663 34.0363 219.076 33.7242C219.301 33.5369 219.501 33.3247 219.651 33.0875H220.602C220.502 33.2873 220.352 33.512 220.114 33.7492C219.889 33.9989 219.664 34.1986 219.426 34.3485C219.038 34.6231 218.613 34.7979 218.15 34.8978C217.899 34.9477 217.624 34.9727 217.336 34.9727C216.623 34.9727 216.11 34.723 215.785 34.2361C215.459 33.7492 215.459 33.0625 215.772 32.1761C216.072 31.3022 216.573 30.603 217.261 30.0537C217.95 29.5169 218.7 29.2422 219.501 29.2422ZM220.189 31.6393C220.29 31.2398 220.315 30.9276 220.252 30.6904C220.139 30.2535 219.777 30.0287 219.163 30.0287C218.725 30.0287 218.3 30.1785 217.899 30.4782C217.499 30.7778 217.199 31.1648 217.024 31.6268H220.189V31.6393Z" fill="white"/>
<path d="M229.253 27.3691H230.467L230.717 34.8101H229.541L229.528 32.5878H226.412L224.773 34.8101H223.672L229.253 27.3816V27.3691ZM229.466 31.7513L229.416 28.4678L226.988 31.7513H229.453H229.466Z" fill="white"/>
<path d="M233.707 29.378H234.62L234.295 30.3143C234.433 30.1271 234.695 29.9148 235.083 29.6527C235.471 29.3905 235.847 29.2656 236.235 29.2656C236.247 29.2656 236.285 29.2656 236.322 29.2656C236.36 29.2656 236.435 29.2656 236.535 29.2906L236.197 30.2519C236.197 30.2519 236.097 30.2394 236.047 30.227C235.997 30.227 235.947 30.227 235.884 30.227C235.396 30.227 234.971 30.3768 234.608 30.6639C234.245 30.9636 233.995 31.3006 233.857 31.6877L232.768 34.8089H231.805L233.707 29.3905V29.378Z" fill="white"/>
<path d="M238.3 27.8809H239.276L238.751 29.3915H239.664L239.401 30.1406H238.488L237.249 33.6738C237.187 33.8611 237.212 33.9859 237.324 34.0483C237.387 34.0858 237.499 34.0983 237.675 34.0983C237.725 34.0983 237.775 34.0983 237.825 34.0983C237.875 34.0983 237.95 34.0983 238.012 34.0858L237.762 34.8099C237.637 34.8349 237.512 34.8598 237.387 34.8723C237.262 34.8848 237.124 34.8973 236.986 34.8973C236.536 34.8973 236.273 34.7849 236.185 34.5727C236.098 34.3605 236.123 34.0733 236.236 33.7237L237.499 30.1406H236.724L236.986 29.3915H237.762L238.288 27.8809H238.3Z" fill="white"/>
<path d="M240.12 33.1113C240.045 33.4109 240.045 33.6481 240.12 33.8104C240.271 34.1101 240.646 34.2474 241.259 34.2474C241.622 34.2474 241.972 34.1725 242.298 34.0227C242.623 33.8729 242.848 33.6481 242.949 33.3485C243.036 33.1113 242.986 32.9365 242.798 32.8116C242.686 32.7367 242.435 32.6493 242.048 32.5495L241.334 32.3622C240.871 32.2498 240.558 32.1125 240.371 31.9752C240.033 31.7255 239.945 31.3884 240.095 30.9514C240.271 30.4395 240.621 30.0275 241.134 29.7029C241.647 29.3908 242.235 29.2285 242.898 29.2285C243.774 29.2285 244.325 29.4657 244.55 29.9526C244.688 30.2523 244.688 30.5894 244.55 30.9389H243.637C243.687 30.7392 243.674 30.5519 243.599 30.3771C243.462 30.1399 243.099 30.0151 242.548 30.0151C242.173 30.0151 241.872 30.0775 241.635 30.2148C241.397 30.3397 241.234 30.5144 241.159 30.7392C241.071 30.9764 241.134 31.1637 241.334 31.301C241.447 31.3884 241.635 31.4633 241.897 31.5257L242.498 31.6755C243.149 31.8378 243.574 31.9877 243.762 32.1375C244.05 32.3747 244.112 32.7367 243.937 33.2361C243.762 33.723 243.424 34.135 242.911 34.4846C242.398 34.8342 241.735 35.009 240.934 35.009C240.07 35.009 239.52 34.8217 239.282 34.4596C239.044 34.0976 239.019 33.6356 239.182 33.0988H240.108L240.12 33.1113Z" fill="white"/>
</g>
<defs>
<clipPath id="clip0_2743_2980">
<rect width="252" height="41" fill="white"/>
</clipPath>
</defs>
</svg>
